<mxfile host="app.diagrams.net" modified="2023-11-22T23:55:34.347Z" agent="Mozilla/5.0 (Windows NT 10.0; Win64; x64) AppleWebKit/537.36 (KHTML, like Gecko) Chrome/119.0.0.0 Safari/537.36" etag="7jd1FoYY_Z2oZYvgBvJd" version="22.1.3" type="google">
  <diagram name="Page-1" id="DB03AGHDjhM6YVXL5qPy">
    <mxGraphModel grid="1" page="1" gridSize="10" guides="1" tooltips="1" connect="1" arrows="1" fold="1" pageScale="1" pageWidth="850" pageHeight="1100" math="0" shadow="0">
      <root>
        <mxCell id="0" />
        <mxCell id="1" parent="0" />
        <mxCell id="ljVb3_Cuu5B8RGBBvRsg-8" value="" style="group" connectable="0" vertex="1" parent="1">
          <mxGeometry x="85" y="653" width="190" height="40" as="geometry" />
        </mxCell>
        <mxCell id="ljVb3_Cuu5B8RGBBvRsg-23" value="Artist" style="text;html=1;align=left;verticalAlign=middle;resizable=0;points=[];autosize=1;strokeColor=none;fillColor=none;" vertex="1" parent="ljVb3_Cuu5B8RGBBvRsg-8">
          <mxGeometry x="8" y="-3" width="50" height="30" as="geometry" />
        </mxCell>
        <mxCell id="f8DO7Mmtz-OQgVnMJp8k-1" value="" style="group" connectable="0" vertex="1" parent="1">
          <mxGeometry x="85" y="652" width="190" height="40" as="geometry" />
        </mxCell>
        <mxCell id="f8DO7Mmtz-OQgVnMJp8k-2" value="" style="shape=table;startSize=0;container=1;collapsible=0;childLayout=tableLayout;swimlaneLine=1;" vertex="1" parent="f8DO7Mmtz-OQgVnMJp8k-1">
          <mxGeometry x="10" y="20" width="300" height="20" as="geometry" />
        </mxCell>
        <mxCell id="f8DO7Mmtz-OQgVnMJp8k-3" value="" style="shape=tableRow;horizontal=0;startSize=0;swimlaneHead=0;swimlaneBody=0;strokeColor=inherit;top=0;left=0;bottom=0;right=0;collapsible=0;dropTarget=0;fillColor=none;points=[[0,0.5],[1,0.5]];portConstraint=eastwest;" vertex="1" parent="f8DO7Mmtz-OQgVnMJp8k-2">
          <mxGeometry width="300" height="20" as="geometry" />
        </mxCell>
        <mxCell id="f8DO7Mmtz-OQgVnMJp8k-4" value="&lt;u&gt;Artist ID&lt;/u&gt;" style="shape=partialRectangle;html=1;whiteSpace=wrap;connectable=0;strokeColor=inherit;overflow=hidden;fillColor=none;top=0;left=0;bottom=0;right=0;pointerEvents=1;" vertex="1" parent="f8DO7Mmtz-OQgVnMJp8k-3">
          <mxGeometry width="60" height="20" as="geometry">
            <mxRectangle width="60" height="20" as="alternateBounds" />
          </mxGeometry>
        </mxCell>
        <mxCell id="f8DO7Mmtz-OQgVnMJp8k-5" value="Name" style="shape=partialRectangle;html=1;whiteSpace=wrap;connectable=0;strokeColor=inherit;overflow=hidden;fillColor=none;top=0;left=0;bottom=0;right=0;pointerEvents=1;" vertex="1" parent="f8DO7Mmtz-OQgVnMJp8k-3">
          <mxGeometry x="60" width="60" height="20" as="geometry">
            <mxRectangle width="60" height="20" as="alternateBounds" />
          </mxGeometry>
        </mxCell>
        <mxCell id="f8DO7Mmtz-OQgVnMJp8k-6" value="Age" style="shape=partialRectangle;html=1;whiteSpace=wrap;connectable=0;strokeColor=inherit;overflow=hidden;fillColor=none;top=0;left=0;bottom=0;right=0;pointerEvents=1;" vertex="1" parent="f8DO7Mmtz-OQgVnMJp8k-3">
          <mxGeometry x="120" width="60" height="20" as="geometry">
            <mxRectangle width="60" height="20" as="alternateBounds" />
          </mxGeometry>
        </mxCell>
        <mxCell id="f8DO7Mmtz-OQgVnMJp8k-7" value="Gender" style="shape=partialRectangle;html=1;whiteSpace=wrap;connectable=0;strokeColor=inherit;overflow=hidden;fillColor=none;top=0;left=0;bottom=0;right=0;pointerEvents=1;" vertex="1" parent="f8DO7Mmtz-OQgVnMJp8k-3">
          <mxGeometry x="180" width="60" height="20" as="geometry">
            <mxRectangle width="60" height="20" as="alternateBounds" />
          </mxGeometry>
        </mxCell>
        <mxCell id="f8DO7Mmtz-OQgVnMJp8k-8" value="Bio" style="shape=partialRectangle;html=1;whiteSpace=wrap;connectable=0;strokeColor=inherit;overflow=hidden;fillColor=none;top=0;left=0;bottom=0;right=0;pointerEvents=1;" vertex="1" parent="f8DO7Mmtz-OQgVnMJp8k-3">
          <mxGeometry x="240" width="60" height="20" as="geometry">
            <mxRectangle width="60" height="20" as="alternateBounds" />
          </mxGeometry>
        </mxCell>
        <mxCell id="f8DO7Mmtz-OQgVnMJp8k-16" value="User" style="text;html=1;align=left;verticalAlign=middle;resizable=0;points=[];autosize=1;strokeColor=none;fillColor=none;" vertex="1" parent="1">
          <mxGeometry x="93" y="88" width="50" height="30" as="geometry" />
        </mxCell>
        <mxCell id="ljVb3_Cuu5B8RGBBvRsg-9" value="" style="shape=table;startSize=0;container=1;collapsible=0;childLayout=tableLayout;swimlaneLine=1;" vertex="1" parent="1">
          <mxGeometry x="93" y="110" width="557" height="20" as="geometry" />
        </mxCell>
        <mxCell id="ljVb3_Cuu5B8RGBBvRsg-10" value="" style="shape=tableRow;horizontal=0;startSize=0;swimlaneHead=0;swimlaneBody=0;strokeColor=inherit;top=0;left=0;bottom=0;right=0;collapsible=0;dropTarget=0;fillColor=none;points=[[0,0.5],[1,0.5]];portConstraint=eastwest;" vertex="1" parent="ljVb3_Cuu5B8RGBBvRsg-9">
          <mxGeometry width="557" height="20" as="geometry" />
        </mxCell>
        <mxCell id="ljVb3_Cuu5B8RGBBvRsg-11" value="&lt;u&gt;Username&lt;/u&gt;" style="shape=partialRectangle;html=1;whiteSpace=wrap;connectable=0;strokeColor=inherit;overflow=hidden;fillColor=none;top=0;left=0;bottom=0;right=0;pointerEvents=1;" vertex="1" parent="ljVb3_Cuu5B8RGBBvRsg-10">
          <mxGeometry width="61" height="20" as="geometry">
            <mxRectangle width="61" height="20" as="alternateBounds" />
          </mxGeometry>
        </mxCell>
        <mxCell id="ljVb3_Cuu5B8RGBBvRsg-12" value="Fname" style="shape=partialRectangle;html=1;whiteSpace=wrap;connectable=0;strokeColor=inherit;overflow=hidden;fillColor=none;top=0;left=0;bottom=0;right=0;pointerEvents=1;" vertex="1" parent="ljVb3_Cuu5B8RGBBvRsg-10">
          <mxGeometry x="61" width="61" height="20" as="geometry">
            <mxRectangle width="61" height="20" as="alternateBounds" />
          </mxGeometry>
        </mxCell>
        <mxCell id="VfF2mMgJOJkq_536G33M-2" value="Lname" style="shape=partialRectangle;html=1;whiteSpace=wrap;connectable=0;strokeColor=inherit;overflow=hidden;fillColor=none;top=0;left=0;bottom=0;right=0;pointerEvents=1;" vertex="1" parent="ljVb3_Cuu5B8RGBBvRsg-10">
          <mxGeometry x="122" width="60" height="20" as="geometry">
            <mxRectangle width="60" height="20" as="alternateBounds" />
          </mxGeometry>
        </mxCell>
        <mxCell id="ljVb3_Cuu5B8RGBBvRsg-13" value="Age" style="shape=partialRectangle;html=1;whiteSpace=wrap;connectable=0;strokeColor=inherit;overflow=hidden;fillColor=none;top=0;left=0;bottom=0;right=0;pointerEvents=1;" vertex="1" parent="ljVb3_Cuu5B8RGBBvRsg-10">
          <mxGeometry x="182" width="61" height="20" as="geometry">
            <mxRectangle width="61" height="20" as="alternateBounds" />
          </mxGeometry>
        </mxCell>
        <mxCell id="ljVb3_Cuu5B8RGBBvRsg-14" value="Gender" style="shape=partialRectangle;html=1;whiteSpace=wrap;connectable=0;strokeColor=inherit;overflow=hidden;fillColor=none;top=0;left=0;bottom=0;right=0;pointerEvents=1;" vertex="1" parent="ljVb3_Cuu5B8RGBBvRsg-10">
          <mxGeometry x="243" width="61" height="20" as="geometry">
            <mxRectangle width="61" height="20" as="alternateBounds" />
          </mxGeometry>
        </mxCell>
        <mxCell id="ljVb3_Cuu5B8RGBBvRsg-15" value="Password" style="shape=partialRectangle;html=1;whiteSpace=wrap;connectable=0;strokeColor=inherit;overflow=hidden;fillColor=none;top=0;left=0;bottom=0;right=0;pointerEvents=1;" vertex="1" parent="ljVb3_Cuu5B8RGBBvRsg-10">
          <mxGeometry x="304" width="61" height="20" as="geometry">
            <mxRectangle width="61" height="20" as="alternateBounds" />
          </mxGeometry>
        </mxCell>
        <mxCell id="ljVb3_Cuu5B8RGBBvRsg-16" value="AdminFlag" style="shape=partialRectangle;html=1;whiteSpace=wrap;connectable=0;strokeColor=inherit;overflow=hidden;fillColor=none;top=0;left=0;bottom=0;right=0;pointerEvents=1;" vertex="1" parent="ljVb3_Cuu5B8RGBBvRsg-10">
          <mxGeometry x="365" width="60" height="20" as="geometry">
            <mxRectangle width="60" height="20" as="alternateBounds" />
          </mxGeometry>
        </mxCell>
        <mxCell id="ljVb3_Cuu5B8RGBBvRsg-17" value="ClientFlag" style="shape=partialRectangle;html=1;whiteSpace=wrap;connectable=0;strokeColor=inherit;overflow=hidden;fillColor=none;top=0;left=0;bottom=0;right=0;pointerEvents=1;" vertex="1" parent="ljVb3_Cuu5B8RGBBvRsg-10">
          <mxGeometry x="425" width="61" height="20" as="geometry">
            <mxRectangle width="61" height="20" as="alternateBounds" />
          </mxGeometry>
        </mxCell>
        <mxCell id="QrUUQnAEXTTWMAnBoLvO-11" value="Date Joined" style="shape=partialRectangle;html=1;whiteSpace=wrap;connectable=0;strokeColor=inherit;overflow=hidden;fillColor=none;top=0;left=0;bottom=0;right=0;pointerEvents=1;" vertex="1" parent="ljVb3_Cuu5B8RGBBvRsg-10">
          <mxGeometry x="486" width="71" height="20" as="geometry">
            <mxRectangle width="71" height="20" as="alternateBounds" />
          </mxGeometry>
        </mxCell>
        <mxCell id="CFxeT3Bh_3nWk0Ns5FCH-1" value="" style="shape=table;startSize=0;container=1;collapsible=0;childLayout=tableLayout;" vertex="1" parent="1">
          <mxGeometry x="95" y="240" width="790" height="20" as="geometry" />
        </mxCell>
        <mxCell id="CFxeT3Bh_3nWk0Ns5FCH-2" value="" style="shape=tableRow;horizontal=0;startSize=0;swimlaneHead=0;swimlaneBody=0;strokeColor=inherit;top=0;left=0;bottom=0;right=0;collapsible=0;dropTarget=0;fillColor=none;points=[[0,0.5],[1,0.5]];portConstraint=eastwest;" vertex="1" parent="CFxeT3Bh_3nWk0Ns5FCH-1">
          <mxGeometry width="790" height="20" as="geometry" />
        </mxCell>
        <mxCell id="CFxeT3Bh_3nWk0Ns5FCH-3" value="&lt;u&gt;Rating ID&lt;/u&gt;" style="shape=partialRectangle;html=1;whiteSpace=wrap;connectable=0;strokeColor=inherit;overflow=hidden;fillColor=none;top=0;left=0;bottom=0;right=0;pointerEvents=1;" vertex="1" parent="CFxeT3Bh_3nWk0Ns5FCH-2">
          <mxGeometry width="60" height="20" as="geometry">
            <mxRectangle width="60" height="20" as="alternateBounds" />
          </mxGeometry>
        </mxCell>
        <mxCell id="CFxeT3Bh_3nWk0Ns5FCH-4" value="Originality Score" style="shape=partialRectangle;html=1;whiteSpace=wrap;connectable=0;strokeColor=inherit;overflow=hidden;fillColor=none;top=0;left=0;bottom=0;right=0;pointerEvents=1;" vertex="1" parent="CFxeT3Bh_3nWk0Ns5FCH-2">
          <mxGeometry x="60" width="100" height="20" as="geometry">
            <mxRectangle width="100" height="20" as="alternateBounds" />
          </mxGeometry>
        </mxCell>
        <mxCell id="CFxeT3Bh_3nWk0Ns5FCH-5" value="Lyric Score" style="shape=partialRectangle;html=1;whiteSpace=wrap;connectable=0;strokeColor=inherit;overflow=hidden;fillColor=none;top=0;left=0;bottom=0;right=0;pointerEvents=1;" vertex="1" parent="CFxeT3Bh_3nWk0Ns5FCH-2">
          <mxGeometry x="160" width="82" height="20" as="geometry">
            <mxRectangle width="82" height="20" as="alternateBounds" />
          </mxGeometry>
        </mxCell>
        <mxCell id="CFxeT3Bh_3nWk0Ns5FCH-6" value="Vibe Score" style="shape=partialRectangle;html=1;whiteSpace=wrap;connectable=0;strokeColor=inherit;overflow=hidden;fillColor=none;top=0;left=0;bottom=0;right=0;pointerEvents=1;" vertex="1" parent="CFxeT3Bh_3nWk0Ns5FCH-2">
          <mxGeometry x="242" width="70" height="20" as="geometry">
            <mxRectangle width="70" height="20" as="alternateBounds" />
          </mxGeometry>
        </mxCell>
        <mxCell id="CFxeT3Bh_3nWk0Ns5FCH-7" value="Instrumental Score" style="shape=partialRectangle;html=1;whiteSpace=wrap;connectable=0;strokeColor=inherit;overflow=hidden;fillColor=none;top=0;left=0;bottom=0;right=0;pointerEvents=1;" vertex="1" parent="CFxeT3Bh_3nWk0Ns5FCH-2">
          <mxGeometry x="312" width="148" height="20" as="geometry">
            <mxRectangle width="148" height="20" as="alternateBounds" />
          </mxGeometry>
        </mxCell>
        <mxCell id="CFxeT3Bh_3nWk0Ns5FCH-8" value="Album Flow Score" style="shape=partialRectangle;html=1;whiteSpace=wrap;connectable=0;strokeColor=inherit;overflow=hidden;fillColor=none;top=0;left=0;bottom=0;right=0;pointerEvents=1;" vertex="1" parent="CFxeT3Bh_3nWk0Ns5FCH-2">
          <mxGeometry x="460" width="120" height="20" as="geometry">
            <mxRectangle width="120" height="20" as="alternateBounds" />
          </mxGeometry>
        </mxCell>
        <mxCell id="CFxeT3Bh_3nWk0Ns5FCH-10" value="&lt;u&gt;Username&lt;/u&gt;" style="shape=partialRectangle;html=1;whiteSpace=wrap;connectable=0;strokeColor=inherit;overflow=hidden;fillColor=none;top=0;left=0;bottom=0;right=0;pointerEvents=1;" vertex="1" parent="CFxeT3Bh_3nWk0Ns5FCH-2">
          <mxGeometry x="580" width="70" height="20" as="geometry">
            <mxRectangle width="70" height="20" as="alternateBounds" />
          </mxGeometry>
        </mxCell>
        <mxCell id="CFxeT3Bh_3nWk0Ns5FCH-11" value="&lt;span&gt;Album ID&lt;/span&gt;" style="shape=partialRectangle;html=1;whiteSpace=wrap;connectable=0;strokeColor=inherit;overflow=hidden;fillColor=none;top=0;left=0;bottom=0;right=0;pointerEvents=1;fontStyle=0" vertex="1" parent="CFxeT3Bh_3nWk0Ns5FCH-2">
          <mxGeometry x="650" width="70" height="20" as="geometry">
            <mxRectangle width="70" height="20" as="alternateBounds" />
          </mxGeometry>
        </mxCell>
        <mxCell id="QrUUQnAEXTTWMAnBoLvO-17" value="Date Given" style="shape=partialRectangle;html=1;whiteSpace=wrap;connectable=0;strokeColor=inherit;overflow=hidden;fillColor=none;top=0;left=0;bottom=0;right=0;pointerEvents=1;fontStyle=0" vertex="1" parent="CFxeT3Bh_3nWk0Ns5FCH-2">
          <mxGeometry x="720" width="70" height="20" as="geometry">
            <mxRectangle width="70" height="20" as="alternateBounds" />
          </mxGeometry>
        </mxCell>
        <mxCell id="CFxeT3Bh_3nWk0Ns5FCH-9" value="Album Rating" style="text;html=1;align=center;verticalAlign=middle;resizable=0;points=[];autosize=1;strokeColor=none;fillColor=none;" vertex="1" parent="1">
          <mxGeometry x="82" y="218" width="100" height="30" as="geometry" />
        </mxCell>
        <mxCell id="f8DO7Mmtz-OQgVnMJp8k-17" value="Album Review" style="text;html=1;align=center;verticalAlign=middle;resizable=0;points=[];autosize=1;strokeColor=none;fillColor=none;" vertex="1" parent="1">
          <mxGeometry x="84" y="368" width="100" height="30" as="geometry" />
        </mxCell>
        <mxCell id="f8DO7Mmtz-OQgVnMJp8k-25" value="" style="shape=table;startSize=0;container=1;collapsible=0;childLayout=tableLayout;swimlaneLine=1;" vertex="1" parent="1">
          <mxGeometry x="95" y="390" width="617" height="20" as="geometry" />
        </mxCell>
        <mxCell id="f8DO7Mmtz-OQgVnMJp8k-26" value="" style="shape=tableRow;horizontal=0;startSize=0;swimlaneHead=0;swimlaneBody=0;strokeColor=inherit;top=0;left=0;bottom=0;right=0;collapsible=0;dropTarget=0;fillColor=none;points=[[0,0.5],[1,0.5]];portConstraint=eastwest;" vertex="1" parent="f8DO7Mmtz-OQgVnMJp8k-25">
          <mxGeometry width="617" height="20" as="geometry" />
        </mxCell>
        <mxCell id="f8DO7Mmtz-OQgVnMJp8k-27" value="&lt;u&gt;Review ID&lt;/u&gt;" style="shape=partialRectangle;html=1;whiteSpace=wrap;connectable=0;strokeColor=inherit;overflow=hidden;fillColor=none;top=0;left=0;bottom=0;right=0;pointerEvents=1;" vertex="1" parent="f8DO7Mmtz-OQgVnMJp8k-26">
          <mxGeometry width="62" height="20" as="geometry">
            <mxRectangle width="62" height="20" as="alternateBounds" />
          </mxGeometry>
        </mxCell>
        <mxCell id="f8DO7Mmtz-OQgVnMJp8k-28" value="Title" style="shape=partialRectangle;html=1;whiteSpace=wrap;connectable=0;strokeColor=inherit;overflow=hidden;fillColor=none;top=0;left=0;bottom=0;right=0;pointerEvents=1;" vertex="1" parent="f8DO7Mmtz-OQgVnMJp8k-26">
          <mxGeometry x="62" width="61" height="20" as="geometry">
            <mxRectangle width="61" height="20" as="alternateBounds" />
          </mxGeometry>
        </mxCell>
        <mxCell id="f8DO7Mmtz-OQgVnMJp8k-29" value="Body" style="shape=partialRectangle;html=1;whiteSpace=wrap;connectable=0;strokeColor=inherit;overflow=hidden;fillColor=none;top=0;left=0;bottom=0;right=0;pointerEvents=1;" vertex="1" parent="f8DO7Mmtz-OQgVnMJp8k-26">
          <mxGeometry x="123" width="62" height="20" as="geometry">
            <mxRectangle width="62" height="20" as="alternateBounds" />
          </mxGeometry>
        </mxCell>
        <mxCell id="f8DO7Mmtz-OQgVnMJp8k-30" value="Upvotes" style="shape=partialRectangle;html=1;whiteSpace=wrap;connectable=0;strokeColor=inherit;overflow=hidden;fillColor=none;top=0;left=0;bottom=0;right=0;pointerEvents=1;" vertex="1" parent="f8DO7Mmtz-OQgVnMJp8k-26">
          <mxGeometry x="185" width="62" height="20" as="geometry">
            <mxRectangle width="62" height="20" as="alternateBounds" />
          </mxGeometry>
        </mxCell>
        <mxCell id="f8DO7Mmtz-OQgVnMJp8k-31" value="Downvotes" style="shape=partialRectangle;html=1;whiteSpace=wrap;connectable=0;strokeColor=inherit;overflow=hidden;fillColor=none;top=0;left=0;bottom=0;right=0;pointerEvents=1;" vertex="1" parent="f8DO7Mmtz-OQgVnMJp8k-26">
          <mxGeometry x="247" width="74" height="20" as="geometry">
            <mxRectangle width="74" height="20" as="alternateBounds" />
          </mxGeometry>
        </mxCell>
        <mxCell id="f8DO7Mmtz-OQgVnMJp8k-48" value="Username" style="shape=partialRectangle;html=1;whiteSpace=wrap;connectable=0;strokeColor=inherit;overflow=hidden;fillColor=none;top=0;left=0;bottom=0;right=0;pointerEvents=1;fontStyle=4" vertex="1" parent="f8DO7Mmtz-OQgVnMJp8k-26">
          <mxGeometry x="321" width="74" height="20" as="geometry">
            <mxRectangle width="74" height="20" as="alternateBounds" />
          </mxGeometry>
        </mxCell>
        <mxCell id="ljVb3_Cuu5B8RGBBvRsg-159" value="Album ID" style="shape=partialRectangle;html=1;whiteSpace=wrap;connectable=0;strokeColor=inherit;overflow=hidden;fillColor=none;top=0;left=0;bottom=0;right=0;pointerEvents=1;fontStyle=0" vertex="1" parent="f8DO7Mmtz-OQgVnMJp8k-26">
          <mxGeometry x="395" width="74" height="20" as="geometry">
            <mxRectangle width="74" height="20" as="alternateBounds" />
          </mxGeometry>
        </mxCell>
        <mxCell id="CFxeT3Bh_3nWk0Ns5FCH-47" value="RatingID" style="shape=partialRectangle;html=1;whiteSpace=wrap;connectable=0;strokeColor=inherit;overflow=hidden;fillColor=none;top=0;left=0;bottom=0;right=0;pointerEvents=1;fontStyle=0" vertex="1" parent="f8DO7Mmtz-OQgVnMJp8k-26">
          <mxGeometry x="469" width="74" height="20" as="geometry">
            <mxRectangle width="74" height="20" as="alternateBounds" />
          </mxGeometry>
        </mxCell>
        <mxCell id="QrUUQnAEXTTWMAnBoLvO-24" value="Date Posted" style="shape=partialRectangle;html=1;whiteSpace=wrap;connectable=0;strokeColor=inherit;overflow=hidden;fillColor=none;top=0;left=0;bottom=0;right=0;pointerEvents=1;fontStyle=0" vertex="1" parent="f8DO7Mmtz-OQgVnMJp8k-26">
          <mxGeometry x="543" width="74" height="20" as="geometry">
            <mxRectangle width="74" height="20" as="alternateBounds" />
          </mxGeometry>
        </mxCell>
        <mxCell id="ljVb3_Cuu5B8RGBBvRsg-73" value="" style="shape=table;startSize=0;container=1;collapsible=0;childLayout=tableLayout;swimlaneLine=1;" vertex="1" parent="1">
          <mxGeometry x="419" y="672" width="120" height="20" as="geometry" />
        </mxCell>
        <mxCell id="ljVb3_Cuu5B8RGBBvRsg-74" value="" style="shape=tableRow;horizontal=0;startSize=0;swimlaneHead=0;swimlaneBody=0;strokeColor=inherit;top=0;left=0;bottom=0;right=0;collapsible=0;dropTarget=0;fillColor=none;points=[[0,0.5],[1,0.5]];portConstraint=eastwest;" vertex="1" parent="ljVb3_Cuu5B8RGBBvRsg-73">
          <mxGeometry width="120" height="20" as="geometry" />
        </mxCell>
        <mxCell id="ljVb3_Cuu5B8RGBBvRsg-75" value="&lt;u&gt;Artist ID&lt;/u&gt;" style="shape=partialRectangle;html=1;whiteSpace=wrap;connectable=0;strokeColor=inherit;overflow=hidden;fillColor=none;top=0;left=0;bottom=0;right=0;pointerEvents=1;" vertex="1" parent="ljVb3_Cuu5B8RGBBvRsg-74">
          <mxGeometry width="60" height="20" as="geometry">
            <mxRectangle width="60" height="20" as="alternateBounds" />
          </mxGeometry>
        </mxCell>
        <mxCell id="ljVb3_Cuu5B8RGBBvRsg-76" value="Genre" style="shape=partialRectangle;html=1;whiteSpace=wrap;connectable=0;strokeColor=inherit;overflow=hidden;fillColor=none;top=0;left=0;bottom=0;right=0;pointerEvents=1;fontStyle=4" vertex="1" parent="ljVb3_Cuu5B8RGBBvRsg-74">
          <mxGeometry x="60" width="60" height="20" as="geometry">
            <mxRectangle width="60" height="20" as="alternateBounds" />
          </mxGeometry>
        </mxCell>
        <mxCell id="ljVb3_Cuu5B8RGBBvRsg-71" value="Artist_Genre" style="text;html=1;align=left;verticalAlign=middle;resizable=0;points=[];autosize=1;strokeColor=none;fillColor=none;" vertex="1" parent="1">
          <mxGeometry x="417" y="650" width="90" height="30" as="geometry" />
        </mxCell>
        <mxCell id="CFxeT3Bh_3nWk0Ns5FCH-12" value="" style="endArrow=classic;html=1;rounded=0;exitX=0.774;exitY=0.969;exitDx=0;exitDy=0;exitPerimeter=0;entryX=0.045;entryY=0.971;entryDx=0;entryDy=0;entryPerimeter=0;" edge="1" parent="1" source="CFxeT3Bh_3nWk0Ns5FCH-2" target="ljVb3_Cuu5B8RGBBvRsg-10">
          <mxGeometry width="50" height="50" relative="1" as="geometry">
            <mxPoint x="445" y="320" as="sourcePoint" />
            <mxPoint x="495" y="270" as="targetPoint" />
            <Array as="points">
              <mxPoint x="706" y="290" />
              <mxPoint x="45" y="290" />
              <mxPoint x="45" y="150" />
              <mxPoint x="112" y="150" />
            </Array>
          </mxGeometry>
        </mxCell>
        <mxCell id="f8DO7Mmtz-OQgVnMJp8k-35" value="" style="shape=table;startSize=0;container=1;collapsible=0;childLayout=tableLayout;swimlaneLine=1;" vertex="1" parent="1">
          <mxGeometry x="93" y="440" width="617" height="20" as="geometry" />
        </mxCell>
        <mxCell id="f8DO7Mmtz-OQgVnMJp8k-36" value="" style="shape=tableRow;horizontal=0;startSize=0;swimlaneHead=0;swimlaneBody=0;strokeColor=inherit;top=0;left=0;bottom=0;right=0;collapsible=0;dropTarget=0;fillColor=none;points=[[0,0.5],[1,0.5]];portConstraint=eastwest;" vertex="1" parent="f8DO7Mmtz-OQgVnMJp8k-35">
          <mxGeometry width="617" height="20" as="geometry" />
        </mxCell>
        <mxCell id="f8DO7Mmtz-OQgVnMJp8k-37" value="&lt;u&gt;Review ID&lt;/u&gt;" style="shape=partialRectangle;html=1;whiteSpace=wrap;connectable=0;strokeColor=inherit;overflow=hidden;fillColor=none;top=0;left=0;bottom=0;right=0;pointerEvents=1;" vertex="1" parent="f8DO7Mmtz-OQgVnMJp8k-36">
          <mxGeometry width="62" height="20" as="geometry">
            <mxRectangle width="62" height="20" as="alternateBounds" />
          </mxGeometry>
        </mxCell>
        <mxCell id="f8DO7Mmtz-OQgVnMJp8k-38" value="Title" style="shape=partialRectangle;html=1;whiteSpace=wrap;connectable=0;strokeColor=inherit;overflow=hidden;fillColor=none;top=0;left=0;bottom=0;right=0;pointerEvents=1;" vertex="1" parent="f8DO7Mmtz-OQgVnMJp8k-36">
          <mxGeometry x="62" width="60" height="20" as="geometry">
            <mxRectangle width="60" height="20" as="alternateBounds" />
          </mxGeometry>
        </mxCell>
        <mxCell id="f8DO7Mmtz-OQgVnMJp8k-39" value="Body" style="shape=partialRectangle;html=1;whiteSpace=wrap;connectable=0;strokeColor=inherit;overflow=hidden;fillColor=none;top=0;left=0;bottom=0;right=0;pointerEvents=1;" vertex="1" parent="f8DO7Mmtz-OQgVnMJp8k-36">
          <mxGeometry x="122" width="63" height="20" as="geometry">
            <mxRectangle width="63" height="20" as="alternateBounds" />
          </mxGeometry>
        </mxCell>
        <mxCell id="f8DO7Mmtz-OQgVnMJp8k-40" value="Upvotes" style="shape=partialRectangle;html=1;whiteSpace=wrap;connectable=0;strokeColor=inherit;overflow=hidden;fillColor=none;top=0;left=0;bottom=0;right=0;pointerEvents=1;" vertex="1" parent="f8DO7Mmtz-OQgVnMJp8k-36">
          <mxGeometry x="185" width="62" height="20" as="geometry">
            <mxRectangle width="62" height="20" as="alternateBounds" />
          </mxGeometry>
        </mxCell>
        <mxCell id="f8DO7Mmtz-OQgVnMJp8k-41" value="Downvotes" style="shape=partialRectangle;html=1;whiteSpace=wrap;connectable=0;strokeColor=inherit;overflow=hidden;fillColor=none;top=0;left=0;bottom=0;right=0;pointerEvents=1;" vertex="1" parent="f8DO7Mmtz-OQgVnMJp8k-36">
          <mxGeometry x="247" width="74" height="20" as="geometry">
            <mxRectangle width="74" height="20" as="alternateBounds" />
          </mxGeometry>
        </mxCell>
        <mxCell id="f8DO7Mmtz-OQgVnMJp8k-49" value="Username" style="shape=partialRectangle;html=1;whiteSpace=wrap;connectable=0;strokeColor=inherit;overflow=hidden;fillColor=none;top=0;left=0;bottom=0;right=0;pointerEvents=1;fontStyle=4" vertex="1" parent="f8DO7Mmtz-OQgVnMJp8k-36">
          <mxGeometry x="321" width="74" height="20" as="geometry">
            <mxRectangle width="74" height="20" as="alternateBounds" />
          </mxGeometry>
        </mxCell>
        <mxCell id="ljVb3_Cuu5B8RGBBvRsg-160" value="Song ID" style="shape=partialRectangle;html=1;whiteSpace=wrap;connectable=0;strokeColor=inherit;overflow=hidden;fillColor=none;top=0;left=0;bottom=0;right=0;pointerEvents=1;fontStyle=0" vertex="1" parent="f8DO7Mmtz-OQgVnMJp8k-36">
          <mxGeometry x="395" width="74" height="20" as="geometry">
            <mxRectangle width="74" height="20" as="alternateBounds" />
          </mxGeometry>
        </mxCell>
        <mxCell id="CFxeT3Bh_3nWk0Ns5FCH-49" value="RatingID" style="shape=partialRectangle;html=1;whiteSpace=wrap;connectable=0;strokeColor=inherit;overflow=hidden;fillColor=none;top=0;left=0;bottom=0;right=0;pointerEvents=1;fontStyle=0" vertex="1" parent="f8DO7Mmtz-OQgVnMJp8k-36">
          <mxGeometry x="469" width="74" height="20" as="geometry">
            <mxRectangle width="74" height="20" as="alternateBounds" />
          </mxGeometry>
        </mxCell>
        <mxCell id="QrUUQnAEXTTWMAnBoLvO-28" value="Date Posted" style="shape=partialRectangle;html=1;whiteSpace=wrap;connectable=0;strokeColor=inherit;overflow=hidden;fillColor=none;top=0;left=0;bottom=0;right=0;pointerEvents=1;fontStyle=0" vertex="1" parent="f8DO7Mmtz-OQgVnMJp8k-36">
          <mxGeometry x="543" width="74" height="20" as="geometry">
            <mxRectangle width="74" height="20" as="alternateBounds" />
          </mxGeometry>
        </mxCell>
        <mxCell id="f8DO7Mmtz-OQgVnMJp8k-34" value="Song Review" style="text;html=1;align=center;verticalAlign=middle;resizable=0;points=[];autosize=1;strokeColor=none;fillColor=none;" vertex="1" parent="1">
          <mxGeometry x="85" y="418" width="90" height="30" as="geometry" />
        </mxCell>
        <mxCell id="f8DO7Mmtz-OQgVnMJp8k-50" value="Song Rating" style="text;html=1;align=center;verticalAlign=middle;resizable=0;points=[];autosize=1;strokeColor=none;fillColor=none;" vertex="1" parent="1">
          <mxGeometry x="83" y="168" width="90" height="30" as="geometry" />
        </mxCell>
        <mxCell id="f8DO7Mmtz-OQgVnMJp8k-51" value="" style="shape=table;startSize=0;container=1;collapsible=0;childLayout=tableLayout;" vertex="1" parent="1">
          <mxGeometry x="95" y="190" width="670" height="20" as="geometry" />
        </mxCell>
        <mxCell id="f8DO7Mmtz-OQgVnMJp8k-52" value="" style="shape=tableRow;horizontal=0;startSize=0;swimlaneHead=0;swimlaneBody=0;strokeColor=inherit;top=0;left=0;bottom=0;right=0;collapsible=0;dropTarget=0;fillColor=none;points=[[0,0.5],[1,0.5]];portConstraint=eastwest;" vertex="1" parent="f8DO7Mmtz-OQgVnMJp8k-51">
          <mxGeometry width="670" height="20" as="geometry" />
        </mxCell>
        <mxCell id="f8DO7Mmtz-OQgVnMJp8k-53" value="&lt;u&gt;Rating ID&lt;/u&gt;" style="shape=partialRectangle;html=1;whiteSpace=wrap;connectable=0;strokeColor=inherit;overflow=hidden;fillColor=none;top=0;left=0;bottom=0;right=0;pointerEvents=1;" vertex="1" parent="f8DO7Mmtz-OQgVnMJp8k-52">
          <mxGeometry width="60" height="20" as="geometry">
            <mxRectangle width="60" height="20" as="alternateBounds" />
          </mxGeometry>
        </mxCell>
        <mxCell id="f8DO7Mmtz-OQgVnMJp8k-54" value="Originality Score" style="shape=partialRectangle;html=1;whiteSpace=wrap;connectable=0;strokeColor=inherit;overflow=hidden;fillColor=none;top=0;left=0;bottom=0;right=0;pointerEvents=1;" vertex="1" parent="f8DO7Mmtz-OQgVnMJp8k-52">
          <mxGeometry x="60" width="100" height="20" as="geometry">
            <mxRectangle width="100" height="20" as="alternateBounds" />
          </mxGeometry>
        </mxCell>
        <mxCell id="f8DO7Mmtz-OQgVnMJp8k-55" value="Lyric Score" style="shape=partialRectangle;html=1;whiteSpace=wrap;connectable=0;strokeColor=inherit;overflow=hidden;fillColor=none;top=0;left=0;bottom=0;right=0;pointerEvents=1;" vertex="1" parent="f8DO7Mmtz-OQgVnMJp8k-52">
          <mxGeometry x="160" width="82" height="20" as="geometry">
            <mxRectangle width="82" height="20" as="alternateBounds" />
          </mxGeometry>
        </mxCell>
        <mxCell id="f8DO7Mmtz-OQgVnMJp8k-56" value="Vibe Score" style="shape=partialRectangle;html=1;whiteSpace=wrap;connectable=0;strokeColor=inherit;overflow=hidden;fillColor=none;top=0;left=0;bottom=0;right=0;pointerEvents=1;" vertex="1" parent="f8DO7Mmtz-OQgVnMJp8k-52">
          <mxGeometry x="242" width="70" height="20" as="geometry">
            <mxRectangle width="70" height="20" as="alternateBounds" />
          </mxGeometry>
        </mxCell>
        <mxCell id="f8DO7Mmtz-OQgVnMJp8k-57" value="Instrumental Score" style="shape=partialRectangle;html=1;whiteSpace=wrap;connectable=0;strokeColor=inherit;overflow=hidden;fillColor=none;top=0;left=0;bottom=0;right=0;pointerEvents=1;" vertex="1" parent="f8DO7Mmtz-OQgVnMJp8k-52">
          <mxGeometry x="312" width="148" height="20" as="geometry">
            <mxRectangle width="148" height="20" as="alternateBounds" />
          </mxGeometry>
        </mxCell>
        <mxCell id="f8DO7Mmtz-OQgVnMJp8k-59" value="&lt;u&gt;Username&lt;/u&gt;" style="shape=partialRectangle;html=1;whiteSpace=wrap;connectable=0;strokeColor=inherit;overflow=hidden;fillColor=none;top=0;left=0;bottom=0;right=0;pointerEvents=1;" vertex="1" parent="f8DO7Mmtz-OQgVnMJp8k-52">
          <mxGeometry x="460" width="70" height="20" as="geometry">
            <mxRectangle width="70" height="20" as="alternateBounds" />
          </mxGeometry>
        </mxCell>
        <mxCell id="f8DO7Mmtz-OQgVnMJp8k-60" value="&lt;span&gt;Song ID&lt;/span&gt;" style="shape=partialRectangle;html=1;whiteSpace=wrap;connectable=0;strokeColor=inherit;overflow=hidden;fillColor=none;top=0;left=0;bottom=0;right=0;pointerEvents=1;fontStyle=0" vertex="1" parent="f8DO7Mmtz-OQgVnMJp8k-52">
          <mxGeometry x="530" width="70" height="20" as="geometry">
            <mxRectangle width="70" height="20" as="alternateBounds" />
          </mxGeometry>
        </mxCell>
        <mxCell id="QrUUQnAEXTTWMAnBoLvO-13" value="Date Given" style="shape=partialRectangle;html=1;whiteSpace=wrap;connectable=0;strokeColor=inherit;overflow=hidden;fillColor=none;top=0;left=0;bottom=0;right=0;pointerEvents=1;fontStyle=0" vertex="1" parent="f8DO7Mmtz-OQgVnMJp8k-52">
          <mxGeometry x="600" width="70" height="20" as="geometry">
            <mxRectangle width="70" height="20" as="alternateBounds" />
          </mxGeometry>
        </mxCell>
        <mxCell id="f8DO7Mmtz-OQgVnMJp8k-61" value="Comment" style="text;html=1;align=center;verticalAlign=middle;resizable=0;points=[];autosize=1;strokeColor=none;fillColor=none;" vertex="1" parent="1">
          <mxGeometry x="80" y="478" width="80" height="30" as="geometry" />
        </mxCell>
        <mxCell id="f8DO7Mmtz-OQgVnMJp8k-62" value="" style="shape=table;startSize=0;container=1;collapsible=0;childLayout=tableLayout;swimlaneLine=1;" vertex="1" parent="1">
          <mxGeometry x="93" y="500" width="517" height="20" as="geometry" />
        </mxCell>
        <mxCell id="f8DO7Mmtz-OQgVnMJp8k-63" value="" style="shape=tableRow;horizontal=0;startSize=0;swimlaneHead=0;swimlaneBody=0;strokeColor=inherit;top=0;left=0;bottom=0;right=0;collapsible=0;dropTarget=0;fillColor=none;points=[[0,0.5],[1,0.5]];portConstraint=eastwest;" vertex="1" parent="f8DO7Mmtz-OQgVnMJp8k-62">
          <mxGeometry width="517" height="20" as="geometry" />
        </mxCell>
        <mxCell id="f8DO7Mmtz-OQgVnMJp8k-64" value="&lt;u&gt;Comment ID&lt;/u&gt;" style="shape=partialRectangle;html=1;whiteSpace=wrap;connectable=0;strokeColor=inherit;overflow=hidden;fillColor=none;top=0;left=0;bottom=0;right=0;pointerEvents=1;" vertex="1" parent="f8DO7Mmtz-OQgVnMJp8k-63">
          <mxGeometry width="75" height="20" as="geometry">
            <mxRectangle width="75" height="20" as="alternateBounds" />
          </mxGeometry>
        </mxCell>
        <mxCell id="f8DO7Mmtz-OQgVnMJp8k-65" value="Upvotes" style="shape=partialRectangle;html=1;whiteSpace=wrap;connectable=0;strokeColor=inherit;overflow=hidden;fillColor=none;top=0;left=0;bottom=0;right=0;pointerEvents=1;" vertex="1" parent="f8DO7Mmtz-OQgVnMJp8k-63">
          <mxGeometry x="75" width="63" height="20" as="geometry">
            <mxRectangle width="63" height="20" as="alternateBounds" />
          </mxGeometry>
        </mxCell>
        <mxCell id="f8DO7Mmtz-OQgVnMJp8k-66" value="Downvotes" style="shape=partialRectangle;html=1;whiteSpace=wrap;connectable=0;strokeColor=inherit;overflow=hidden;fillColor=none;top=0;left=0;bottom=0;right=0;pointerEvents=1;" vertex="1" parent="f8DO7Mmtz-OQgVnMJp8k-63">
          <mxGeometry x="138" width="73" height="20" as="geometry">
            <mxRectangle width="73" height="20" as="alternateBounds" />
          </mxGeometry>
        </mxCell>
        <mxCell id="f8DO7Mmtz-OQgVnMJp8k-67" value="Body" style="shape=partialRectangle;html=1;whiteSpace=wrap;connectable=0;strokeColor=inherit;overflow=hidden;fillColor=none;top=0;left=0;bottom=0;right=0;pointerEvents=1;" vertex="1" parent="f8DO7Mmtz-OQgVnMJp8k-63">
          <mxGeometry x="211" width="83" height="20" as="geometry">
            <mxRectangle width="83" height="20" as="alternateBounds" />
          </mxGeometry>
        </mxCell>
        <mxCell id="f8DO7Mmtz-OQgVnMJp8k-68" value="Review ID" style="shape=partialRectangle;html=1;whiteSpace=wrap;connectable=0;strokeColor=inherit;overflow=hidden;fillColor=none;top=0;left=0;bottom=0;right=0;pointerEvents=1;fontStyle=4" vertex="1" parent="f8DO7Mmtz-OQgVnMJp8k-63">
          <mxGeometry x="294" width="73" height="20" as="geometry">
            <mxRectangle width="73" height="20" as="alternateBounds" />
          </mxGeometry>
        </mxCell>
        <mxCell id="f8DO7Mmtz-OQgVnMJp8k-69" value="Username" style="shape=partialRectangle;html=1;whiteSpace=wrap;connectable=0;strokeColor=inherit;overflow=hidden;fillColor=none;top=0;left=0;bottom=0;right=0;pointerEvents=1;fontStyle=0" vertex="1" parent="f8DO7Mmtz-OQgVnMJp8k-63">
          <mxGeometry x="367" width="75" height="20" as="geometry">
            <mxRectangle width="75" height="20" as="alternateBounds" />
          </mxGeometry>
        </mxCell>
        <mxCell id="QrUUQnAEXTTWMAnBoLvO-29" value="Date Posted" style="shape=partialRectangle;html=1;whiteSpace=wrap;connectable=0;strokeColor=inherit;overflow=hidden;fillColor=none;top=0;left=0;bottom=0;right=0;pointerEvents=1;fontStyle=0" vertex="1" parent="f8DO7Mmtz-OQgVnMJp8k-63">
          <mxGeometry x="442" width="75" height="20" as="geometry">
            <mxRectangle width="75" height="20" as="alternateBounds" />
          </mxGeometry>
        </mxCell>
        <mxCell id="f8DO7Mmtz-OQgVnMJp8k-71" value="Album" style="text;html=1;align=center;verticalAlign=middle;resizable=0;points=[];autosize=1;strokeColor=none;fillColor=none;" vertex="1" parent="1">
          <mxGeometry x="80" y="577" width="60" height="30" as="geometry" />
        </mxCell>
        <mxCell id="f8DO7Mmtz-OQgVnMJp8k-72" value="" style="shape=table;startSize=0;container=1;collapsible=0;childLayout=tableLayout;swimlaneLine=1;" vertex="1" parent="1">
          <mxGeometry x="93" y="600" width="284" height="20" as="geometry" />
        </mxCell>
        <mxCell id="f8DO7Mmtz-OQgVnMJp8k-73" value="" style="shape=tableRow;horizontal=0;startSize=0;swimlaneHead=0;swimlaneBody=0;strokeColor=inherit;top=0;left=0;bottom=0;right=0;collapsible=0;dropTarget=0;fillColor=none;points=[[0,0.5],[1,0.5]];portConstraint=eastwest;" vertex="1" parent="f8DO7Mmtz-OQgVnMJp8k-72">
          <mxGeometry width="284" height="20" as="geometry" />
        </mxCell>
        <mxCell id="f8DO7Mmtz-OQgVnMJp8k-74" value="&lt;u&gt;Album ID&lt;/u&gt;" style="shape=partialRectangle;html=1;whiteSpace=wrap;connectable=0;strokeColor=inherit;overflow=hidden;fillColor=none;top=0;left=0;bottom=0;right=0;pointerEvents=1;" vertex="1" parent="f8DO7Mmtz-OQgVnMJp8k-73">
          <mxGeometry width="75" height="20" as="geometry">
            <mxRectangle width="75" height="20" as="alternateBounds" />
          </mxGeometry>
        </mxCell>
        <mxCell id="f8DO7Mmtz-OQgVnMJp8k-75" value="Name" style="shape=partialRectangle;html=1;whiteSpace=wrap;connectable=0;strokeColor=inherit;overflow=hidden;fillColor=none;top=0;left=0;bottom=0;right=0;pointerEvents=1;" vertex="1" parent="f8DO7Mmtz-OQgVnMJp8k-73">
          <mxGeometry x="75" width="63" height="20" as="geometry">
            <mxRectangle width="63" height="20" as="alternateBounds" />
          </mxGeometry>
        </mxCell>
        <mxCell id="f8DO7Mmtz-OQgVnMJp8k-76" value="Artist ID" style="shape=partialRectangle;html=1;whiteSpace=wrap;connectable=0;strokeColor=inherit;overflow=hidden;fillColor=none;top=0;left=0;bottom=0;right=0;pointerEvents=1;fontStyle=4" vertex="1" parent="f8DO7Mmtz-OQgVnMJp8k-73">
          <mxGeometry x="138" width="59" height="20" as="geometry">
            <mxRectangle width="59" height="20" as="alternateBounds" />
          </mxGeometry>
        </mxCell>
        <mxCell id="QrUUQnAEXTTWMAnBoLvO-31" value="Date Released" style="shape=partialRectangle;html=1;whiteSpace=wrap;connectable=0;strokeColor=inherit;overflow=hidden;fillColor=none;top=0;left=0;bottom=0;right=0;pointerEvents=1;fontStyle=0" vertex="1" parent="f8DO7Mmtz-OQgVnMJp8k-73">
          <mxGeometry x="197" width="87" height="20" as="geometry">
            <mxRectangle width="87" height="20" as="alternateBounds" />
          </mxGeometry>
        </mxCell>
        <mxCell id="f8DO7Mmtz-OQgVnMJp8k-80" value="Album_Genre" style="text;html=1;align=left;verticalAlign=middle;resizable=0;points=[];autosize=1;strokeColor=none;fillColor=none;" vertex="1" parent="1">
          <mxGeometry x="416" y="577" width="100" height="30" as="geometry" />
        </mxCell>
        <mxCell id="CFxeT3Bh_3nWk0Ns5FCH-13" value="" style="endArrow=classic;html=1;rounded=0;exitX=0.865;exitY=0.993;exitDx=0;exitDy=0;exitPerimeter=0;entryX=0;entryY=0.5;entryDx=0;entryDy=0;" edge="1" parent="1" source="CFxeT3Bh_3nWk0Ns5FCH-2" target="f8DO7Mmtz-OQgVnMJp8k-73">
          <mxGeometry width="50" height="50" relative="1" as="geometry">
            <mxPoint x="465" y="540" as="sourcePoint" />
            <mxPoint x="515" y="490" as="targetPoint" />
            <Array as="points">
              <mxPoint x="778" y="300" />
              <mxPoint x="15" y="300" />
              <mxPoint x="15" y="610" />
            </Array>
          </mxGeometry>
        </mxCell>
        <mxCell id="f8DO7Mmtz-OQgVnMJp8k-81" value="" style="shape=table;startSize=0;container=1;collapsible=0;childLayout=tableLayout;swimlaneLine=1;" vertex="1" parent="1">
          <mxGeometry x="418" y="600" width="120" height="20" as="geometry" />
        </mxCell>
        <mxCell id="f8DO7Mmtz-OQgVnMJp8k-82" value="" style="shape=tableRow;horizontal=0;startSize=0;swimlaneHead=0;swimlaneBody=0;strokeColor=inherit;top=0;left=0;bottom=0;right=0;collapsible=0;dropTarget=0;fillColor=none;points=[[0,0.5],[1,0.5]];portConstraint=eastwest;" vertex="1" parent="f8DO7Mmtz-OQgVnMJp8k-81">
          <mxGeometry width="120" height="20" as="geometry" />
        </mxCell>
        <mxCell id="f8DO7Mmtz-OQgVnMJp8k-83" value="&lt;u&gt;Album ID&lt;/u&gt;" style="shape=partialRectangle;html=1;whiteSpace=wrap;connectable=0;strokeColor=inherit;overflow=hidden;fillColor=none;top=0;left=0;bottom=0;right=0;pointerEvents=1;" vertex="1" parent="f8DO7Mmtz-OQgVnMJp8k-82">
          <mxGeometry width="60" height="20" as="geometry">
            <mxRectangle width="60" height="20" as="alternateBounds" />
          </mxGeometry>
        </mxCell>
        <mxCell id="f8DO7Mmtz-OQgVnMJp8k-84" value="Genre" style="shape=partialRectangle;html=1;whiteSpace=wrap;connectable=0;strokeColor=inherit;overflow=hidden;fillColor=none;top=0;left=0;bottom=0;right=0;pointerEvents=1;fontStyle=4" vertex="1" parent="f8DO7Mmtz-OQgVnMJp8k-82">
          <mxGeometry x="60" width="60" height="20" as="geometry">
            <mxRectangle width="60" height="20" as="alternateBounds" />
          </mxGeometry>
        </mxCell>
        <mxCell id="ljVb3_Cuu5B8RGBBvRsg-126" value="" style="shape=table;startSize=0;container=1;collapsible=0;childLayout=tableLayout;swimlaneLine=1;" vertex="1" parent="1">
          <mxGeometry x="418" y="812" width="120" height="20" as="geometry" />
        </mxCell>
        <mxCell id="ljVb3_Cuu5B8RGBBvRsg-127" value="" style="shape=tableRow;horizontal=0;startSize=0;swimlaneHead=0;swimlaneBody=0;strokeColor=inherit;top=0;left=0;bottom=0;right=0;collapsible=0;dropTarget=0;fillColor=none;points=[[0,0.5],[1,0.5]];portConstraint=eastwest;" vertex="1" parent="ljVb3_Cuu5B8RGBBvRsg-126">
          <mxGeometry width="120" height="20" as="geometry" />
        </mxCell>
        <mxCell id="ljVb3_Cuu5B8RGBBvRsg-128" value="&lt;u&gt;Producer ID&lt;/u&gt;" style="shape=partialRectangle;html=1;whiteSpace=wrap;connectable=0;strokeColor=inherit;overflow=hidden;fillColor=none;top=0;left=0;bottom=0;right=0;pointerEvents=1;" vertex="1" parent="ljVb3_Cuu5B8RGBBvRsg-127">
          <mxGeometry width="75" height="20" as="geometry">
            <mxRectangle width="75" height="20" as="alternateBounds" />
          </mxGeometry>
        </mxCell>
        <mxCell id="ljVb3_Cuu5B8RGBBvRsg-129" value="Genre" style="shape=partialRectangle;html=1;whiteSpace=wrap;connectable=0;strokeColor=inherit;overflow=hidden;fillColor=none;top=0;left=0;bottom=0;right=0;pointerEvents=1;fontStyle=4" vertex="1" parent="ljVb3_Cuu5B8RGBBvRsg-127">
          <mxGeometry x="75" width="45" height="20" as="geometry">
            <mxRectangle width="45" height="20" as="alternateBounds" />
          </mxGeometry>
        </mxCell>
        <mxCell id="ljVb3_Cuu5B8RGBBvRsg-130" value="Producer_Genre" style="text;html=1;align=left;verticalAlign=middle;resizable=0;points=[];autosize=1;strokeColor=none;fillColor=none;" vertex="1" parent="1">
          <mxGeometry x="416" y="789" width="110" height="30" as="geometry" />
        </mxCell>
        <mxCell id="f8DO7Mmtz-OQgVnMJp8k-91" value="Song" style="text;html=1;align=center;verticalAlign=middle;resizable=0;points=[];autosize=1;strokeColor=none;fillColor=none;" vertex="1" parent="1">
          <mxGeometry x="85" y="726" width="50" height="30" as="geometry" />
        </mxCell>
        <mxCell id="f8DO7Mmtz-OQgVnMJp8k-92" value="" style="shape=table;startSize=0;container=1;collapsible=0;childLayout=tableLayout;swimlaneLine=1;" vertex="1" parent="1">
          <mxGeometry x="95" y="750" width="295" height="20" as="geometry" />
        </mxCell>
        <mxCell id="f8DO7Mmtz-OQgVnMJp8k-93" value="" style="shape=tableRow;horizontal=0;startSize=0;swimlaneHead=0;swimlaneBody=0;strokeColor=inherit;top=0;left=0;bottom=0;right=0;collapsible=0;dropTarget=0;fillColor=none;points=[[0,0.5],[1,0.5]];portConstraint=eastwest;" vertex="1" parent="f8DO7Mmtz-OQgVnMJp8k-92">
          <mxGeometry width="295" height="20" as="geometry" />
        </mxCell>
        <mxCell id="f8DO7Mmtz-OQgVnMJp8k-94" value="&lt;u&gt;Song ID&lt;/u&gt;" style="shape=partialRectangle;html=1;whiteSpace=wrap;connectable=0;strokeColor=inherit;overflow=hidden;fillColor=none;top=0;left=0;bottom=0;right=0;pointerEvents=1;" vertex="1" parent="f8DO7Mmtz-OQgVnMJp8k-93">
          <mxGeometry width="55" height="20" as="geometry">
            <mxRectangle width="55" height="20" as="alternateBounds" />
          </mxGeometry>
        </mxCell>
        <mxCell id="f8DO7Mmtz-OQgVnMJp8k-95" value="Name" style="shape=partialRectangle;html=1;whiteSpace=wrap;connectable=0;strokeColor=inherit;overflow=hidden;fillColor=none;top=0;left=0;bottom=0;right=0;pointerEvents=1;" vertex="1" parent="f8DO7Mmtz-OQgVnMJp8k-93">
          <mxGeometry x="55" width="40" height="20" as="geometry">
            <mxRectangle width="40" height="20" as="alternateBounds" />
          </mxGeometry>
        </mxCell>
        <mxCell id="f8DO7Mmtz-OQgVnMJp8k-96" value="Artist ID" style="shape=partialRectangle;html=1;whiteSpace=wrap;connectable=0;strokeColor=inherit;overflow=hidden;fillColor=none;top=0;left=0;bottom=0;right=0;pointerEvents=1;fontStyle=4" vertex="1" parent="f8DO7Mmtz-OQgVnMJp8k-93">
          <mxGeometry x="95" width="50" height="20" as="geometry">
            <mxRectangle width="50" height="20" as="alternateBounds" />
          </mxGeometry>
        </mxCell>
        <mxCell id="ljVb3_Cuu5B8RGBBvRsg-157" value="Album ID" style="shape=partialRectangle;html=1;whiteSpace=wrap;connectable=0;strokeColor=inherit;overflow=hidden;fillColor=none;top=0;left=0;bottom=0;right=0;pointerEvents=1;fontStyle=0" vertex="1" parent="f8DO7Mmtz-OQgVnMJp8k-93">
          <mxGeometry x="145" width="60" height="20" as="geometry">
            <mxRectangle width="60" height="20" as="alternateBounds" />
          </mxGeometry>
        </mxCell>
        <mxCell id="QrUUQnAEXTTWMAnBoLvO-41" value="Date Released" style="shape=partialRectangle;html=1;whiteSpace=wrap;connectable=0;strokeColor=inherit;overflow=hidden;fillColor=none;top=0;left=0;bottom=0;right=0;pointerEvents=1;fontStyle=0" vertex="1" parent="f8DO7Mmtz-OQgVnMJp8k-93">
          <mxGeometry x="205" width="90" height="20" as="geometry">
            <mxRectangle width="90" height="20" as="alternateBounds" />
          </mxGeometry>
        </mxCell>
        <mxCell id="CFxeT3Bh_3nWk0Ns5FCH-14" value="" style="endArrow=classic;html=1;rounded=0;entryX=0.123;entryY=-0.024;entryDx=0;entryDy=0;entryPerimeter=0;" edge="1" parent="1" target="f8DO7Mmtz-OQgVnMJp8k-93">
          <mxGeometry width="50" height="50" relative="1" as="geometry">
            <mxPoint x="661" y="210" as="sourcePoint" />
            <mxPoint x="415" y="410" as="targetPoint" />
            <Array as="points">
              <mxPoint x="661" y="230" />
              <mxPoint x="900" y="230" />
              <mxPoint x="900" y="730" />
              <mxPoint x="130" y="730" />
            </Array>
          </mxGeometry>
        </mxCell>
        <mxCell id="ljVb3_Cuu5B8RGBBvRsg-117" value="Producer" style="text;html=1;align=left;verticalAlign=middle;resizable=0;points=[];autosize=1;strokeColor=none;fillColor=none;" vertex="1" parent="1">
          <mxGeometry x="93" y="790" width="70" height="30" as="geometry" />
        </mxCell>
        <mxCell id="f8DO7Mmtz-OQgVnMJp8k-106" value="Upvotes/Downvotes Comment" style="text;html=1;align=left;verticalAlign=middle;resizable=0;points=[];autosize=1;strokeColor=none;fillColor=none;" vertex="1" parent="1">
          <mxGeometry x="83" y="867" width="190" height="30" as="geometry" />
        </mxCell>
        <mxCell id="f8DO7Mmtz-OQgVnMJp8k-107" value="" style="shape=table;startSize=0;container=1;collapsible=0;childLayout=tableLayout;swimlaneLine=1;" vertex="1" parent="1">
          <mxGeometry x="95" y="889" width="213" height="20" as="geometry" />
        </mxCell>
        <mxCell id="f8DO7Mmtz-OQgVnMJp8k-108" value="" style="shape=tableRow;horizontal=0;startSize=0;swimlaneHead=0;swimlaneBody=0;strokeColor=inherit;top=0;left=0;bottom=0;right=0;collapsible=0;dropTarget=0;fillColor=none;points=[[0,0.5],[1,0.5]];portConstraint=eastwest;" vertex="1" parent="f8DO7Mmtz-OQgVnMJp8k-107">
          <mxGeometry width="213" height="20" as="geometry" />
        </mxCell>
        <mxCell id="f8DO7Mmtz-OQgVnMJp8k-109" value="&lt;u&gt;Username&lt;/u&gt;" style="shape=partialRectangle;html=1;whiteSpace=wrap;connectable=0;strokeColor=inherit;overflow=hidden;fillColor=none;top=0;left=0;bottom=0;right=0;pointerEvents=1;" vertex="1" parent="f8DO7Mmtz-OQgVnMJp8k-108">
          <mxGeometry width="71" height="20" as="geometry">
            <mxRectangle width="71" height="20" as="alternateBounds" />
          </mxGeometry>
        </mxCell>
        <mxCell id="f8DO7Mmtz-OQgVnMJp8k-110" value="Comment ID" style="shape=partialRectangle;html=1;whiteSpace=wrap;connectable=0;strokeColor=inherit;overflow=hidden;fillColor=none;top=0;left=0;bottom=0;right=0;pointerEvents=1;fontStyle=4" vertex="1" parent="f8DO7Mmtz-OQgVnMJp8k-108">
          <mxGeometry x="71" width="71" height="20" as="geometry">
            <mxRectangle width="71" height="20" as="alternateBounds" />
          </mxGeometry>
        </mxCell>
        <mxCell id="VfF2mMgJOJkq_536G33M-5" value="Vote Type" style="shape=partialRectangle;html=1;whiteSpace=wrap;connectable=0;strokeColor=inherit;overflow=hidden;fillColor=none;top=0;left=0;bottom=0;right=0;pointerEvents=1;fontStyle=0" vertex="1" parent="f8DO7Mmtz-OQgVnMJp8k-108">
          <mxGeometry x="142" width="71" height="20" as="geometry">
            <mxRectangle width="71" height="20" as="alternateBounds" />
          </mxGeometry>
        </mxCell>
        <mxCell id="CFxeT3Bh_3nWk0Ns5FCH-17" value="" style="endArrow=classic;html=1;rounded=0;exitX=0.768;exitY=-0.137;exitDx=0;exitDy=0;exitPerimeter=0;entryX=0.001;entryY=0.811;entryDx=0;entryDy=0;entryPerimeter=0;" edge="1" parent="1" source="f8DO7Mmtz-OQgVnMJp8k-63" target="ljVb3_Cuu5B8RGBBvRsg-10">
          <mxGeometry width="50" height="50" relative="1" as="geometry">
            <mxPoint x="340" y="520" as="sourcePoint" />
            <mxPoint x="96" y="134" as="targetPoint" />
            <Array as="points">
              <mxPoint x="490" y="470" />
              <mxPoint x="70" y="470" />
              <mxPoint x="70" y="126" />
            </Array>
          </mxGeometry>
        </mxCell>
        <mxCell id="ljVb3_Cuu5B8RGBBvRsg-139" value="" style="shape=table;startSize=0;container=1;collapsible=0;childLayout=tableLayout;swimlaneLine=1;" vertex="1" parent="1">
          <mxGeometry x="94" y="812" width="300" height="20" as="geometry" />
        </mxCell>
        <mxCell id="ljVb3_Cuu5B8RGBBvRsg-140" value="" style="shape=tableRow;horizontal=0;startSize=0;swimlaneHead=0;swimlaneBody=0;strokeColor=inherit;top=0;left=0;bottom=0;right=0;collapsible=0;dropTarget=0;fillColor=none;points=[[0,0.5],[1,0.5]];portConstraint=eastwest;" vertex="1" parent="ljVb3_Cuu5B8RGBBvRsg-139">
          <mxGeometry width="300" height="20" as="geometry" />
        </mxCell>
        <mxCell id="ljVb3_Cuu5B8RGBBvRsg-141" value="&lt;u&gt;Producer ID&lt;/u&gt;" style="shape=partialRectangle;html=1;whiteSpace=wrap;connectable=0;strokeColor=inherit;overflow=hidden;fillColor=none;top=0;left=0;bottom=0;right=0;pointerEvents=1;" vertex="1" parent="ljVb3_Cuu5B8RGBBvRsg-140">
          <mxGeometry width="71" height="20" as="geometry">
            <mxRectangle width="71" height="20" as="alternateBounds" />
          </mxGeometry>
        </mxCell>
        <mxCell id="ljVb3_Cuu5B8RGBBvRsg-142" value="Name" style="shape=partialRectangle;html=1;whiteSpace=wrap;connectable=0;strokeColor=inherit;overflow=hidden;fillColor=none;top=0;left=0;bottom=0;right=0;pointerEvents=1;" vertex="1" parent="ljVb3_Cuu5B8RGBBvRsg-140">
          <mxGeometry x="71" width="49" height="20" as="geometry">
            <mxRectangle width="49" height="20" as="alternateBounds" />
          </mxGeometry>
        </mxCell>
        <mxCell id="ljVb3_Cuu5B8RGBBvRsg-143" value="Age" style="shape=partialRectangle;html=1;whiteSpace=wrap;connectable=0;strokeColor=inherit;overflow=hidden;fillColor=none;top=0;left=0;bottom=0;right=0;pointerEvents=1;" vertex="1" parent="ljVb3_Cuu5B8RGBBvRsg-140">
          <mxGeometry x="120" width="60" height="20" as="geometry">
            <mxRectangle width="60" height="20" as="alternateBounds" />
          </mxGeometry>
        </mxCell>
        <mxCell id="ljVb3_Cuu5B8RGBBvRsg-144" value="Gender" style="shape=partialRectangle;html=1;whiteSpace=wrap;connectable=0;strokeColor=inherit;overflow=hidden;fillColor=none;top=0;left=0;bottom=0;right=0;pointerEvents=1;" vertex="1" parent="ljVb3_Cuu5B8RGBBvRsg-140">
          <mxGeometry x="180" width="60" height="20" as="geometry">
            <mxRectangle width="60" height="20" as="alternateBounds" />
          </mxGeometry>
        </mxCell>
        <mxCell id="ljVb3_Cuu5B8RGBBvRsg-145" value="Bio" style="shape=partialRectangle;html=1;whiteSpace=wrap;connectable=0;strokeColor=inherit;overflow=hidden;fillColor=none;top=0;left=0;bottom=0;right=0;pointerEvents=1;" vertex="1" parent="ljVb3_Cuu5B8RGBBvRsg-140">
          <mxGeometry x="240" width="60" height="20" as="geometry">
            <mxRectangle width="60" height="20" as="alternateBounds" />
          </mxGeometry>
        </mxCell>
        <mxCell id="f8DO7Mmtz-OQgVnMJp8k-111" value="Produces Album" style="text;html=1;align=left;verticalAlign=middle;resizable=0;points=[];autosize=1;strokeColor=none;fillColor=none;" vertex="1" parent="1">
          <mxGeometry x="93" y="927" width="110" height="30" as="geometry" />
        </mxCell>
        <mxCell id="f8DO7Mmtz-OQgVnMJp8k-112" value="" style="shape=table;startSize=0;container=1;collapsible=0;childLayout=tableLayout;swimlaneLine=1;" vertex="1" parent="1">
          <mxGeometry x="95" y="949" width="142" height="20" as="geometry" />
        </mxCell>
        <mxCell id="f8DO7Mmtz-OQgVnMJp8k-113" value="" style="shape=tableRow;horizontal=0;startSize=0;swimlaneHead=0;swimlaneBody=0;strokeColor=inherit;top=0;left=0;bottom=0;right=0;collapsible=0;dropTarget=0;fillColor=none;points=[[0,0.5],[1,0.5]];portConstraint=eastwest;" vertex="1" parent="f8DO7Mmtz-OQgVnMJp8k-112">
          <mxGeometry width="142" height="20" as="geometry" />
        </mxCell>
        <mxCell id="f8DO7Mmtz-OQgVnMJp8k-114" value="&lt;u&gt;Producer ID&lt;/u&gt;" style="shape=partialRectangle;html=1;whiteSpace=wrap;connectable=0;strokeColor=inherit;overflow=hidden;fillColor=none;top=0;left=0;bottom=0;right=0;pointerEvents=1;" vertex="1" parent="f8DO7Mmtz-OQgVnMJp8k-113">
          <mxGeometry width="71" height="20" as="geometry">
            <mxRectangle width="71" height="20" as="alternateBounds" />
          </mxGeometry>
        </mxCell>
        <mxCell id="f8DO7Mmtz-OQgVnMJp8k-115" value="Album ID" style="shape=partialRectangle;html=1;whiteSpace=wrap;connectable=0;strokeColor=inherit;overflow=hidden;fillColor=none;top=0;left=0;bottom=0;right=0;pointerEvents=1;fontStyle=4" vertex="1" parent="f8DO7Mmtz-OQgVnMJp8k-113">
          <mxGeometry x="71" width="71" height="20" as="geometry">
            <mxRectangle width="71" height="20" as="alternateBounds" />
          </mxGeometry>
        </mxCell>
        <mxCell id="f8DO7Mmtz-OQgVnMJp8k-116" value="Produces Single" style="text;html=1;align=left;verticalAlign=middle;resizable=0;points=[];autosize=1;strokeColor=none;fillColor=none;" vertex="1" parent="1">
          <mxGeometry x="93" y="986" width="110" height="30" as="geometry" />
        </mxCell>
        <mxCell id="f8DO7Mmtz-OQgVnMJp8k-117" value="" style="shape=table;startSize=0;container=1;collapsible=0;childLayout=tableLayout;swimlaneLine=1;" vertex="1" parent="1">
          <mxGeometry x="95" y="1009" width="142" height="20" as="geometry" />
        </mxCell>
        <mxCell id="f8DO7Mmtz-OQgVnMJp8k-118" value="" style="shape=tableRow;horizontal=0;startSize=0;swimlaneHead=0;swimlaneBody=0;strokeColor=inherit;top=0;left=0;bottom=0;right=0;collapsible=0;dropTarget=0;fillColor=none;points=[[0,0.5],[1,0.5]];portConstraint=eastwest;" vertex="1" parent="f8DO7Mmtz-OQgVnMJp8k-117">
          <mxGeometry width="142" height="20" as="geometry" />
        </mxCell>
        <mxCell id="f8DO7Mmtz-OQgVnMJp8k-119" value="&lt;u&gt;Song ID&lt;/u&gt;" style="shape=partialRectangle;html=1;whiteSpace=wrap;connectable=0;strokeColor=inherit;overflow=hidden;fillColor=none;top=0;left=0;bottom=0;right=0;pointerEvents=1;" vertex="1" parent="f8DO7Mmtz-OQgVnMJp8k-118">
          <mxGeometry width="71" height="20" as="geometry">
            <mxRectangle width="71" height="20" as="alternateBounds" />
          </mxGeometry>
        </mxCell>
        <mxCell id="f8DO7Mmtz-OQgVnMJp8k-120" value="Producer ID" style="shape=partialRectangle;html=1;whiteSpace=wrap;connectable=0;strokeColor=inherit;overflow=hidden;fillColor=none;top=0;left=0;bottom=0;right=0;pointerEvents=1;fontStyle=4" vertex="1" parent="f8DO7Mmtz-OQgVnMJp8k-118">
          <mxGeometry x="71" width="71" height="20" as="geometry">
            <mxRectangle width="71" height="20" as="alternateBounds" />
          </mxGeometry>
        </mxCell>
        <mxCell id="f8DO7Mmtz-OQgVnMJp8k-121" value="" style="endArrow=classic;html=1;rounded=0;exitX=0;exitY=0.5;exitDx=0;exitDy=0;entryX=0;entryY=0.5;entryDx=0;entryDy=0;" edge="1" parent="1" source="f8DO7Mmtz-OQgVnMJp8k-108" target="ljVb3_Cuu5B8RGBBvRsg-9">
          <mxGeometry width="50" height="50" relative="1" as="geometry">
            <mxPoint x="85" y="960" as="sourcePoint" />
            <mxPoint x="40" y="120" as="targetPoint" />
            <Array as="points">
              <mxPoint x="40" y="900" />
              <mxPoint x="40" y="230" />
              <mxPoint x="40" y="120" />
            </Array>
          </mxGeometry>
        </mxCell>
        <mxCell id="CFxeT3Bh_3nWk0Ns5FCH-20" value="" style="shape=table;startSize=0;container=1;collapsible=0;childLayout=tableLayout;swimlaneLine=1;" vertex="1" parent="1">
          <mxGeometry x="95" y="330" width="469" height="20" as="geometry" />
        </mxCell>
        <mxCell id="CFxeT3Bh_3nWk0Ns5FCH-21" value="" style="shape=tableRow;horizontal=0;startSize=0;swimlaneHead=0;swimlaneBody=0;strokeColor=inherit;top=0;left=0;bottom=0;right=0;collapsible=0;dropTarget=0;fillColor=none;points=[[0,0.5],[1,0.5]];portConstraint=eastwest;" vertex="1" parent="CFxeT3Bh_3nWk0Ns5FCH-20">
          <mxGeometry width="469" height="20" as="geometry" />
        </mxCell>
        <mxCell id="CFxeT3Bh_3nWk0Ns5FCH-22" value="&lt;u&gt;Review ID&lt;/u&gt;" style="shape=partialRectangle;html=1;whiteSpace=wrap;connectable=0;strokeColor=inherit;overflow=hidden;fillColor=none;top=0;left=0;bottom=0;right=0;pointerEvents=1;" vertex="1" parent="CFxeT3Bh_3nWk0Ns5FCH-21">
          <mxGeometry width="62" height="20" as="geometry">
            <mxRectangle width="62" height="20" as="alternateBounds" />
          </mxGeometry>
        </mxCell>
        <mxCell id="CFxeT3Bh_3nWk0Ns5FCH-23" value="Title" style="shape=partialRectangle;html=1;whiteSpace=wrap;connectable=0;strokeColor=inherit;overflow=hidden;fillColor=none;top=0;left=0;bottom=0;right=0;pointerEvents=1;" vertex="1" parent="CFxeT3Bh_3nWk0Ns5FCH-21">
          <mxGeometry x="62" width="61" height="20" as="geometry">
            <mxRectangle width="61" height="20" as="alternateBounds" />
          </mxGeometry>
        </mxCell>
        <mxCell id="CFxeT3Bh_3nWk0Ns5FCH-24" value="Body" style="shape=partialRectangle;html=1;whiteSpace=wrap;connectable=0;strokeColor=inherit;overflow=hidden;fillColor=none;top=0;left=0;bottom=0;right=0;pointerEvents=1;" vertex="1" parent="CFxeT3Bh_3nWk0Ns5FCH-21">
          <mxGeometry x="123" width="62" height="20" as="geometry">
            <mxRectangle width="62" height="20" as="alternateBounds" />
          </mxGeometry>
        </mxCell>
        <mxCell id="CFxeT3Bh_3nWk0Ns5FCH-25" value="Upvotes" style="shape=partialRectangle;html=1;whiteSpace=wrap;connectable=0;strokeColor=inherit;overflow=hidden;fillColor=none;top=0;left=0;bottom=0;right=0;pointerEvents=1;" vertex="1" parent="CFxeT3Bh_3nWk0Ns5FCH-21">
          <mxGeometry x="185" width="62" height="20" as="geometry">
            <mxRectangle width="62" height="20" as="alternateBounds" />
          </mxGeometry>
        </mxCell>
        <mxCell id="CFxeT3Bh_3nWk0Ns5FCH-26" value="Downvotes" style="shape=partialRectangle;html=1;whiteSpace=wrap;connectable=0;strokeColor=inherit;overflow=hidden;fillColor=none;top=0;left=0;bottom=0;right=0;pointerEvents=1;" vertex="1" parent="CFxeT3Bh_3nWk0Ns5FCH-21">
          <mxGeometry x="247" width="74" height="20" as="geometry">
            <mxRectangle width="74" height="20" as="alternateBounds" />
          </mxGeometry>
        </mxCell>
        <mxCell id="CFxeT3Bh_3nWk0Ns5FCH-27" value="Username" style="shape=partialRectangle;html=1;whiteSpace=wrap;connectable=0;strokeColor=inherit;overflow=hidden;fillColor=none;top=0;left=0;bottom=0;right=0;pointerEvents=1;fontStyle=4" vertex="1" parent="CFxeT3Bh_3nWk0Ns5FCH-21">
          <mxGeometry x="321" width="74" height="20" as="geometry">
            <mxRectangle width="74" height="20" as="alternateBounds" />
          </mxGeometry>
        </mxCell>
        <mxCell id="QrUUQnAEXTTWMAnBoLvO-19" value="Date Posted" style="shape=partialRectangle;html=1;whiteSpace=wrap;connectable=0;strokeColor=inherit;overflow=hidden;fillColor=none;top=0;left=0;bottom=0;right=0;pointerEvents=1;fontStyle=0" vertex="1" parent="CFxeT3Bh_3nWk0Ns5FCH-21">
          <mxGeometry x="395" width="74" height="20" as="geometry">
            <mxRectangle width="74" height="20" as="alternateBounds" />
          </mxGeometry>
        </mxCell>
        <mxCell id="CFxeT3Bh_3nWk0Ns5FCH-28" value="Review" style="text;html=1;align=center;verticalAlign=middle;resizable=0;points=[];autosize=1;strokeColor=none;fillColor=none;" vertex="1" parent="1">
          <mxGeometry x="84" y="310" width="60" height="30" as="geometry" />
        </mxCell>
        <mxCell id="CFxeT3Bh_3nWk0Ns5FCH-30" value="" style="endArrow=classic;html=1;rounded=0;exitX=0;exitY=0.5;exitDx=0;exitDy=0;entryX=0;entryY=0.5;entryDx=0;entryDy=0;" edge="1" parent="1" source="f8DO7Mmtz-OQgVnMJp8k-26" target="CFxeT3Bh_3nWk0Ns5FCH-21">
          <mxGeometry width="50" height="50" relative="1" as="geometry">
            <mxPoint x="250" y="340" as="sourcePoint" />
            <mxPoint x="300" y="290" as="targetPoint" />
            <Array as="points">
              <mxPoint x="80" y="400" />
              <mxPoint x="80" y="340" />
            </Array>
          </mxGeometry>
        </mxCell>
        <mxCell id="ljVb3_Cuu5B8RGBBvRsg-147" value="" style="endArrow=classic;html=1;rounded=0;exitX=0.373;exitY=1.1;exitDx=0;exitDy=0;exitPerimeter=0;entryX=0.123;entryY=1.056;entryDx=0;entryDy=0;entryPerimeter=0;" edge="1" parent="1">
          <mxGeometry width="50" height="50" relative="1" as="geometry">
            <mxPoint x="468.81" y="692.88" as="sourcePoint" />
            <mxPoint x="136.9500000000001" y="691.9999999999999" as="targetPoint" />
            <Array as="points">
              <mxPoint x="469.05" y="708.88" />
              <mxPoint x="137.05" y="708.88" />
            </Array>
          </mxGeometry>
        </mxCell>
        <mxCell id="f8DO7Mmtz-OQgVnMJp8k-123" value="" style="endArrow=classic;html=1;rounded=0;entryX=0.165;entryY=-0.029;entryDx=0;entryDy=0;entryPerimeter=0;" edge="1" parent="1" target="f8DO7Mmtz-OQgVnMJp8k-73">
          <mxGeometry width="50" height="50" relative="1" as="geometry">
            <mxPoint x="237" y="960" as="sourcePoint" />
            <mxPoint x="70" y="560" as="targetPoint" />
            <Array as="points">
              <mxPoint x="630" y="960" />
              <mxPoint x="630" y="800" />
              <mxPoint x="630" y="560" />
              <mxPoint x="140" y="560" />
              <mxPoint x="140" y="580" />
            </Array>
          </mxGeometry>
        </mxCell>
        <mxCell id="CFxeT3Bh_3nWk0Ns5FCH-32" value="" style="endArrow=classic;html=1;rounded=0;exitX=0.642;exitY=1.028;exitDx=0;exitDy=0;exitPerimeter=0;entryX=-0.002;entryY=0.772;entryDx=0;entryDy=0;entryPerimeter=0;" edge="1" parent="1" source="f8DO7Mmtz-OQgVnMJp8k-63" target="CFxeT3Bh_3nWk0Ns5FCH-21">
          <mxGeometry width="50" height="50" relative="1" as="geometry">
            <mxPoint x="270" y="450" as="sourcePoint" />
            <mxPoint x="320" y="400" as="targetPoint" />
            <Array as="points">
              <mxPoint x="425" y="550" />
              <mxPoint x="50" y="550" />
              <mxPoint x="50" y="346" />
            </Array>
          </mxGeometry>
        </mxCell>
        <mxCell id="ljVb3_Cuu5B8RGBBvRsg-149" value="" style="endArrow=classic;html=1;rounded=0;exitX=0.434;exitY=1.05;exitDx=0;exitDy=0;exitPerimeter=0;entryX=0.031;entryY=1.003;entryDx=0;entryDy=0;entryPerimeter=0;" edge="1" parent="1" source="f8DO7Mmtz-OQgVnMJp8k-102" target="f8DO7Mmtz-OQgVnMJp8k-93">
          <mxGeometry width="50" height="50" relative="1" as="geometry">
            <mxPoint x="382" y="771" as="sourcePoint" />
            <mxPoint x="159" y="770" as="targetPoint" />
            <Array as="points">
              <mxPoint x="470" y="790" />
              <mxPoint x="150" y="790" />
              <mxPoint x="104" y="790" />
            </Array>
          </mxGeometry>
        </mxCell>
        <mxCell id="f8DO7Mmtz-OQgVnMJp8k-124" value="" style="endArrow=classic;html=1;rounded=0;exitX=-0.001;exitY=0.545;exitDx=0;exitDy=0;entryX=0;entryY=0.5;entryDx=0;entryDy=0;exitPerimeter=0;" edge="1" parent="1" source="f8DO7Mmtz-OQgVnMJp8k-112" target="ljVb3_Cuu5B8RGBBvRsg-140">
          <mxGeometry width="50" height="50" relative="1" as="geometry">
            <mxPoint x="38" y="1020" as="sourcePoint" />
            <mxPoint x="80" y="800" as="targetPoint" />
            <Array as="points">
              <mxPoint x="80" y="960" />
              <mxPoint x="80" y="822" />
            </Array>
          </mxGeometry>
        </mxCell>
        <mxCell id="f8DO7Mmtz-OQgVnMJp8k-125" value="" style="endArrow=classic;html=1;rounded=0;entryX=0.009;entryY=0.807;entryDx=0;entryDy=0;entryPerimeter=0;" edge="1" parent="1" target="ljVb3_Cuu5B8RGBBvRsg-117">
          <mxGeometry width="50" height="50" relative="1" as="geometry">
            <mxPoint x="203" y="1010" as="sourcePoint" />
            <mxPoint x="90" y="600" as="targetPoint" />
            <Array as="points">
              <mxPoint x="203" y="980" />
              <mxPoint x="70" y="980" />
              <mxPoint x="70" y="814" />
            </Array>
          </mxGeometry>
        </mxCell>
        <mxCell id="ljVb3_Cuu5B8RGBBvRsg-150" value="" style="endArrow=classic;html=1;rounded=0;exitX=0.381;exitY=0.992;exitDx=0;exitDy=0;exitPerimeter=0;entryX=0.165;entryY=0.96;entryDx=0;entryDy=0;entryPerimeter=0;" edge="1" parent="1" source="f8DO7Mmtz-OQgVnMJp8k-82" target="f8DO7Mmtz-OQgVnMJp8k-73">
          <mxGeometry width="50" height="50" relative="1" as="geometry">
            <mxPoint x="400" y="680" as="sourcePoint" />
            <mxPoint x="130" y="640" as="targetPoint" />
            <Array as="points">
              <mxPoint x="464" y="640" />
              <mxPoint x="140" y="640" />
            </Array>
          </mxGeometry>
        </mxCell>
        <mxCell id="ljVb3_Cuu5B8RGBBvRsg-152" value="" style="endArrow=classic;html=1;rounded=0;exitX=0.373;exitY=1.1;exitDx=0;exitDy=0;exitPerimeter=0;entryX=0.123;entryY=1.056;entryDx=0;entryDy=0;entryPerimeter=0;" edge="1" parent="1">
          <mxGeometry width="50" height="50" relative="1" as="geometry">
            <mxPoint x="473.81" y="831.88" as="sourcePoint" />
            <mxPoint x="141.9500000000001" y="830.9999999999999" as="targetPoint" />
            <Array as="points">
              <mxPoint x="474.05" y="847.88" />
              <mxPoint x="142.05" y="847.88" />
            </Array>
          </mxGeometry>
        </mxCell>
        <mxCell id="ljVb3_Cuu5B8RGBBvRsg-154" value="" style="endArrow=classic;html=1;rounded=0;exitX=0.616;exitY=1.023;exitDx=0;exitDy=0;exitPerimeter=0;entryX=0.151;entryY=-0.033;entryDx=0;entryDy=0;entryPerimeter=0;" edge="1" parent="1" source="f8DO7Mmtz-OQgVnMJp8k-73" target="f8DO7Mmtz-OQgVnMJp8k-3">
          <mxGeometry width="50" height="50" relative="1" as="geometry">
            <mxPoint x="400" y="690" as="sourcePoint" />
            <mxPoint x="450" y="640" as="targetPoint" />
            <Array as="points">
              <mxPoint x="268" y="650" />
              <mxPoint x="140" y="650" />
            </Array>
          </mxGeometry>
        </mxCell>
        <mxCell id="f8DO7Mmtz-OQgVnMJp8k-126" value="" style="endArrow=classic;html=1;rounded=0;exitX=0;exitY=0.5;exitDx=0;exitDy=0;entryX=0;entryY=0.5;entryDx=0;entryDy=0;" edge="1" parent="1" source="f8DO7Mmtz-OQgVnMJp8k-118" target="f8DO7Mmtz-OQgVnMJp8k-93">
          <mxGeometry width="50" height="50" relative="1" as="geometry">
            <mxPoint x="10" y="999" as="sourcePoint" />
            <mxPoint x="60" y="740" as="targetPoint" />
            <Array as="points">
              <mxPoint x="60" y="1019" />
              <mxPoint x="60" y="760" />
            </Array>
          </mxGeometry>
        </mxCell>
        <mxCell id="ljVb3_Cuu5B8RGBBvRsg-155" value="" style="endArrow=classic;html=1;rounded=0;exitX=0.406;exitY=0.018;exitDx=0;exitDy=0;exitPerimeter=0;entryX=0.178;entryY=1.033;entryDx=0;entryDy=0;entryPerimeter=0;" edge="1" parent="1" source="f8DO7Mmtz-OQgVnMJp8k-93" target="f8DO7Mmtz-OQgVnMJp8k-3">
          <mxGeometry width="50" height="50" relative="1" as="geometry">
            <mxPoint x="400" y="690" as="sourcePoint" />
            <mxPoint x="450" y="640" as="targetPoint" />
            <Array as="points">
              <mxPoint x="215" y="720" />
              <mxPoint x="148" y="720" />
            </Array>
          </mxGeometry>
        </mxCell>
        <mxCell id="CFxeT3Bh_3nWk0Ns5FCH-34" value="" style="endArrow=classic;html=1;rounded=0;exitX=0.585;exitY=0.069;exitDx=0;exitDy=0;exitPerimeter=0;entryX=0.1;entryY=1.006;entryDx=0;entryDy=0;entryPerimeter=0;" edge="1" parent="1" source="f8DO7Mmtz-OQgVnMJp8k-26" target="ljVb3_Cuu5B8RGBBvRsg-10">
          <mxGeometry width="50" height="50" relative="1" as="geometry">
            <mxPoint x="240" y="400" as="sourcePoint" />
            <mxPoint x="290" y="350" as="targetPoint" />
            <Array as="points">
              <mxPoint x="456" y="370" />
              <mxPoint x="65" y="370" />
              <mxPoint x="65" y="164" />
              <mxPoint x="135" y="164" />
            </Array>
          </mxGeometry>
        </mxCell>
        <mxCell id="CFxeT3Bh_3nWk0Ns5FCH-35" value="" style="endArrow=classic;html=1;rounded=0;exitX=0.758;exitY=-0.016;exitDx=0;exitDy=0;exitPerimeter=0;entryX=0.024;entryY=1.023;entryDx=0;entryDy=0;entryPerimeter=0;" edge="1" parent="1" source="CFxeT3Bh_3nWk0Ns5FCH-21" target="ljVb3_Cuu5B8RGBBvRsg-10">
          <mxGeometry width="50" height="50" relative="1" as="geometry">
            <mxPoint x="270" y="370" as="sourcePoint" />
            <mxPoint x="320" y="320" as="targetPoint" />
            <Array as="points">
              <mxPoint x="450" y="310" />
              <mxPoint x="80" y="310" />
              <mxPoint x="80" y="140" />
              <mxPoint x="103" y="140" />
            </Array>
          </mxGeometry>
        </mxCell>
        <mxCell id="CFxeT3Bh_3nWk0Ns5FCH-31" value="" style="endArrow=classic;html=1;rounded=0;exitX=0;exitY=0.5;exitDx=0;exitDy=0;entryX=0.038;entryY=1.02;entryDx=0;entryDy=0;entryPerimeter=0;" edge="1" parent="1" source="f8DO7Mmtz-OQgVnMJp8k-36" target="CFxeT3Bh_3nWk0Ns5FCH-21">
          <mxGeometry width="50" height="50" relative="1" as="geometry">
            <mxPoint x="170" y="400" as="sourcePoint" />
            <mxPoint x="220" y="350" as="targetPoint" />
            <Array as="points">
              <mxPoint x="84" y="450" />
              <mxPoint x="84" y="360" />
              <mxPoint x="110" y="360" />
            </Array>
          </mxGeometry>
        </mxCell>
        <mxCell id="CFxeT3Bh_3nWk0Ns5FCH-37" value="" style="endArrow=classic;html=1;rounded=0;exitX=0.595;exitY=0.012;exitDx=0;exitDy=0;exitPerimeter=0;entryX=0.11;entryY=1;entryDx=0;entryDy=0;entryPerimeter=0;" edge="1" parent="1" source="f8DO7Mmtz-OQgVnMJp8k-36" target="ljVb3_Cuu5B8RGBBvRsg-10">
          <mxGeometry width="50" height="50" relative="1" as="geometry">
            <mxPoint x="240" y="440" as="sourcePoint" />
            <mxPoint x="290" y="390" as="targetPoint" />
            <Array as="points">
              <mxPoint x="460" y="420" />
              <mxPoint x="60" y="420" />
              <mxPoint x="60" y="160" />
              <mxPoint x="146" y="160" />
            </Array>
          </mxGeometry>
        </mxCell>
        <mxCell id="CFxeT3Bh_3nWk0Ns5FCH-38" value="" style="endArrow=classic;html=1;rounded=0;exitX=0.739;exitY=1.027;exitDx=0;exitDy=0;exitPerimeter=0;entryX=0.081;entryY=0.945;entryDx=0;entryDy=0;entryPerimeter=0;" edge="1" parent="1" source="f8DO7Mmtz-OQgVnMJp8k-52" target="ljVb3_Cuu5B8RGBBvRsg-10">
          <mxGeometry width="50" height="50" relative="1" as="geometry">
            <mxPoint x="350" y="360" as="sourcePoint" />
            <mxPoint x="400" y="310" as="targetPoint" />
            <Array as="points">
              <mxPoint x="590" y="220" />
              <mxPoint x="90" y="220" />
              <mxPoint x="90" y="170" />
              <mxPoint x="127" y="170" />
            </Array>
          </mxGeometry>
        </mxCell>
        <mxCell id="f8DO7Mmtz-OQgVnMJp8k-101" value="" style="shape=table;startSize=0;container=1;collapsible=0;childLayout=tableLayout;swimlaneLine=1;" vertex="1" parent="1">
          <mxGeometry x="418" y="749" width="120" height="20" as="geometry" />
        </mxCell>
        <mxCell id="f8DO7Mmtz-OQgVnMJp8k-102" value="" style="shape=tableRow;horizontal=0;startSize=0;swimlaneHead=0;swimlaneBody=0;strokeColor=inherit;top=0;left=0;bottom=0;right=0;collapsible=0;dropTarget=0;fillColor=none;points=[[0,0.5],[1,0.5]];portConstraint=eastwest;" vertex="1" parent="f8DO7Mmtz-OQgVnMJp8k-101">
          <mxGeometry width="120" height="20" as="geometry" />
        </mxCell>
        <mxCell id="f8DO7Mmtz-OQgVnMJp8k-103" value="&lt;u&gt;Song ID&lt;/u&gt;" style="shape=partialRectangle;html=1;whiteSpace=wrap;connectable=0;strokeColor=inherit;overflow=hidden;fillColor=none;top=0;left=0;bottom=0;right=0;pointerEvents=1;" vertex="1" parent="f8DO7Mmtz-OQgVnMJp8k-102">
          <mxGeometry width="60" height="20" as="geometry">
            <mxRectangle width="60" height="20" as="alternateBounds" />
          </mxGeometry>
        </mxCell>
        <mxCell id="f8DO7Mmtz-OQgVnMJp8k-104" value="Genre" style="shape=partialRectangle;html=1;whiteSpace=wrap;connectable=0;strokeColor=inherit;overflow=hidden;fillColor=none;top=0;left=0;bottom=0;right=0;pointerEvents=1;fontStyle=4" vertex="1" parent="f8DO7Mmtz-OQgVnMJp8k-102">
          <mxGeometry x="60" width="60" height="20" as="geometry">
            <mxRectangle width="60" height="20" as="alternateBounds" />
          </mxGeometry>
        </mxCell>
        <mxCell id="f8DO7Mmtz-OQgVnMJp8k-100" value="Song_Genre" style="text;html=1;align=left;verticalAlign=middle;resizable=0;points=[];autosize=1;strokeColor=none;fillColor=none;" vertex="1" parent="1">
          <mxGeometry x="416" y="726" width="90" height="30" as="geometry" />
        </mxCell>
        <mxCell id="f8DO7Mmtz-OQgVnMJp8k-129" value="Produces Their Album" style="text;html=1;align=left;verticalAlign=middle;resizable=0;points=[];autosize=1;strokeColor=none;fillColor=none;" vertex="1" parent="1">
          <mxGeometry x="360" y="859" width="140" height="30" as="geometry" />
        </mxCell>
        <mxCell id="f8DO7Mmtz-OQgVnMJp8k-130" value="" style="shape=table;startSize=0;container=1;collapsible=0;childLayout=tableLayout;swimlaneLine=1;" vertex="1" parent="1">
          <mxGeometry x="361" y="889" width="142" height="20" as="geometry" />
        </mxCell>
        <mxCell id="f8DO7Mmtz-OQgVnMJp8k-131" value="" style="shape=tableRow;horizontal=0;startSize=0;swimlaneHead=0;swimlaneBody=0;strokeColor=inherit;top=0;left=0;bottom=0;right=0;collapsible=0;dropTarget=0;fillColor=none;points=[[0,0.5],[1,0.5]];portConstraint=eastwest;" vertex="1" parent="f8DO7Mmtz-OQgVnMJp8k-130">
          <mxGeometry width="142" height="20" as="geometry" />
        </mxCell>
        <mxCell id="f8DO7Mmtz-OQgVnMJp8k-132" value="&lt;u&gt;Album ID&lt;/u&gt;" style="shape=partialRectangle;html=1;whiteSpace=wrap;connectable=0;strokeColor=inherit;overflow=hidden;fillColor=none;top=0;left=0;bottom=0;right=0;pointerEvents=1;" vertex="1" parent="f8DO7Mmtz-OQgVnMJp8k-131">
          <mxGeometry width="71" height="20" as="geometry">
            <mxRectangle width="71" height="20" as="alternateBounds" />
          </mxGeometry>
        </mxCell>
        <mxCell id="f8DO7Mmtz-OQgVnMJp8k-133" value="Artist ID" style="shape=partialRectangle;html=1;whiteSpace=wrap;connectable=0;strokeColor=inherit;overflow=hidden;fillColor=none;top=0;left=0;bottom=0;right=0;pointerEvents=1;fontStyle=4" vertex="1" parent="f8DO7Mmtz-OQgVnMJp8k-131">
          <mxGeometry x="71" width="71" height="20" as="geometry">
            <mxRectangle width="71" height="20" as="alternateBounds" />
          </mxGeometry>
        </mxCell>
        <mxCell id="f8DO7Mmtz-OQgVnMJp8k-134" value="Produces Their Single" style="text;html=1;align=left;verticalAlign=middle;resizable=0;points=[];autosize=1;strokeColor=none;fillColor=none;" vertex="1" parent="1">
          <mxGeometry x="361" y="986" width="140" height="30" as="geometry" />
        </mxCell>
        <mxCell id="f8DO7Mmtz-OQgVnMJp8k-135" value="" style="shape=table;startSize=0;container=1;collapsible=0;childLayout=tableLayout;swimlaneLine=1;" vertex="1" parent="1">
          <mxGeometry x="363" y="1009" width="142" height="20" as="geometry" />
        </mxCell>
        <mxCell id="f8DO7Mmtz-OQgVnMJp8k-136" value="" style="shape=tableRow;horizontal=0;startSize=0;swimlaneHead=0;swimlaneBody=0;strokeColor=inherit;top=0;left=0;bottom=0;right=0;collapsible=0;dropTarget=0;fillColor=none;points=[[0,0.5],[1,0.5]];portConstraint=eastwest;" vertex="1" parent="f8DO7Mmtz-OQgVnMJp8k-135">
          <mxGeometry width="142" height="20" as="geometry" />
        </mxCell>
        <mxCell id="f8DO7Mmtz-OQgVnMJp8k-137" value="&lt;u&gt;Song ID&lt;/u&gt;" style="shape=partialRectangle;html=1;whiteSpace=wrap;connectable=0;strokeColor=inherit;overflow=hidden;fillColor=none;top=0;left=0;bottom=0;right=0;pointerEvents=1;" vertex="1" parent="f8DO7Mmtz-OQgVnMJp8k-136">
          <mxGeometry width="71" height="20" as="geometry">
            <mxRectangle width="71" height="20" as="alternateBounds" />
          </mxGeometry>
        </mxCell>
        <mxCell id="f8DO7Mmtz-OQgVnMJp8k-138" value="Artist ID" style="shape=partialRectangle;html=1;whiteSpace=wrap;connectable=0;strokeColor=inherit;overflow=hidden;fillColor=none;top=0;left=0;bottom=0;right=0;pointerEvents=1;fontStyle=4" vertex="1" parent="f8DO7Mmtz-OQgVnMJp8k-136">
          <mxGeometry x="71" width="71" height="20" as="geometry">
            <mxRectangle width="71" height="20" as="alternateBounds" />
          </mxGeometry>
        </mxCell>
        <mxCell id="f8DO7Mmtz-OQgVnMJp8k-139" value="" style="endArrow=classic;html=1;rounded=0;exitX=-0.001;exitY=0.55;exitDx=0;exitDy=0;exitPerimeter=0;" edge="1" parent="1" source="f8DO7Mmtz-OQgVnMJp8k-130">
          <mxGeometry width="50" height="50" relative="1" as="geometry">
            <mxPoint x="219" y="882" as="sourcePoint" />
            <mxPoint x="150" y="600" as="targetPoint" />
            <Array as="points">
              <mxPoint x="350" y="900" />
              <mxPoint x="350" y="860" />
              <mxPoint x="250" y="860" />
              <mxPoint x="30" y="860" />
              <mxPoint x="30" y="580" />
              <mxPoint x="150" y="580" />
            </Array>
          </mxGeometry>
        </mxCell>
        <mxCell id="ljVb3_Cuu5B8RGBBvRsg-158" value="" style="endArrow=classic;html=1;rounded=0;exitX=0.627;exitY=0.006;exitDx=0;exitDy=0;exitPerimeter=0;" edge="1" parent="1" source="f8DO7Mmtz-OQgVnMJp8k-93">
          <mxGeometry width="50" height="50" relative="1" as="geometry">
            <mxPoint x="348" y="751" as="sourcePoint" />
            <mxPoint x="121" y="620" as="targetPoint" />
            <Array as="points">
              <mxPoint x="280" y="715" />
              <mxPoint x="590" y="715" />
              <mxPoint x="590" y="645" />
              <mxPoint x="121" y="645" />
            </Array>
          </mxGeometry>
        </mxCell>
        <mxCell id="CFxeT3Bh_3nWk0Ns5FCH-39" value="" style="shape=table;startSize=0;container=1;collapsible=0;childLayout=tableLayout;swimlaneLine=1;" vertex="1" parent="1">
          <mxGeometry x="95" y="1060" width="213" height="20" as="geometry" />
        </mxCell>
        <mxCell id="CFxeT3Bh_3nWk0Ns5FCH-40" value="" style="shape=tableRow;horizontal=0;startSize=0;swimlaneHead=0;swimlaneBody=0;strokeColor=inherit;top=0;left=0;bottom=0;right=0;collapsible=0;dropTarget=0;fillColor=none;points=[[0,0.5],[1,0.5]];portConstraint=eastwest;" vertex="1" parent="CFxeT3Bh_3nWk0Ns5FCH-39">
          <mxGeometry width="213" height="20" as="geometry" />
        </mxCell>
        <mxCell id="CFxeT3Bh_3nWk0Ns5FCH-41" value="&lt;u&gt;Username&lt;/u&gt;" style="shape=partialRectangle;html=1;whiteSpace=wrap;connectable=0;strokeColor=inherit;overflow=hidden;fillColor=none;top=0;left=0;bottom=0;right=0;pointerEvents=1;" vertex="1" parent="CFxeT3Bh_3nWk0Ns5FCH-40">
          <mxGeometry width="71" height="20" as="geometry">
            <mxRectangle width="71" height="20" as="alternateBounds" />
          </mxGeometry>
        </mxCell>
        <mxCell id="CFxeT3Bh_3nWk0Ns5FCH-42" value="Review ID" style="shape=partialRectangle;html=1;whiteSpace=wrap;connectable=0;strokeColor=inherit;overflow=hidden;fillColor=none;top=0;left=0;bottom=0;right=0;pointerEvents=1;fontStyle=4" vertex="1" parent="CFxeT3Bh_3nWk0Ns5FCH-40">
          <mxGeometry x="71" width="71" height="20" as="geometry">
            <mxRectangle width="71" height="20" as="alternateBounds" />
          </mxGeometry>
        </mxCell>
        <mxCell id="VfF2mMgJOJkq_536G33M-6" value="Vote Type" style="shape=partialRectangle;html=1;whiteSpace=wrap;connectable=0;strokeColor=inherit;overflow=hidden;fillColor=none;top=0;left=0;bottom=0;right=0;pointerEvents=1;fontStyle=0" vertex="1" parent="CFxeT3Bh_3nWk0Ns5FCH-40">
          <mxGeometry x="142" width="71" height="20" as="geometry">
            <mxRectangle width="71" height="20" as="alternateBounds" />
          </mxGeometry>
        </mxCell>
        <mxCell id="CFxeT3Bh_3nWk0Ns5FCH-43" value="Upvotes/Downvotes Review" style="text;html=1;align=center;verticalAlign=middle;resizable=0;points=[];autosize=1;strokeColor=none;fillColor=none;" vertex="1" parent="1">
          <mxGeometry x="85" y="1038" width="170" height="30" as="geometry" />
        </mxCell>
        <mxCell id="CFxeT3Bh_3nWk0Ns5FCH-44" value="" style="endArrow=classic;html=1;rounded=0;exitX=0;exitY=0.5;exitDx=0;exitDy=0;entryX=-0.001;entryY=0.15;entryDx=0;entryDy=0;entryPerimeter=0;" edge="1" parent="1" source="CFxeT3Bh_3nWk0Ns5FCH-40" target="ljVb3_Cuu5B8RGBBvRsg-10">
          <mxGeometry width="50" height="50" relative="1" as="geometry">
            <mxPoint x="160" y="930" as="sourcePoint" />
            <mxPoint x="10" y="110" as="targetPoint" />
            <Array as="points">
              <mxPoint x="10" y="1070" />
              <mxPoint x="10" y="113" />
            </Array>
          </mxGeometry>
        </mxCell>
        <mxCell id="f8DO7Mmtz-OQgVnMJp8k-140" value="" style="endArrow=classic;html=1;rounded=0;exitX=1;exitY=0.5;exitDx=0;exitDy=0;entryX=0.051;entryY=0.967;entryDx=0;entryDy=0;entryPerimeter=0;" edge="1" parent="1" source="f8DO7Mmtz-OQgVnMJp8k-131" target="f8DO7Mmtz-OQgVnMJp8k-2">
          <mxGeometry width="50" height="50" relative="1" as="geometry">
            <mxPoint x="430" y="907" as="sourcePoint" />
            <mxPoint x="90" y="720" as="targetPoint" />
            <Array as="points">
              <mxPoint x="560" y="900" />
              <mxPoint x="560" y="720" />
              <mxPoint x="110" y="720" />
            </Array>
          </mxGeometry>
        </mxCell>
        <mxCell id="CFxeT3Bh_3nWk0Ns5FCH-45" value="" style="endArrow=classic;html=1;rounded=0;exitX=0.504;exitY=1.078;exitDx=0;exitDy=0;exitPerimeter=0;entryX=0.119;entryY=1;entryDx=0;entryDy=0;entryPerimeter=0;" edge="1" parent="1" source="CFxeT3Bh_3nWk0Ns5FCH-40" target="CFxeT3Bh_3nWk0Ns5FCH-21">
          <mxGeometry width="50" height="50" relative="1" as="geometry">
            <mxPoint x="260" y="770" as="sourcePoint" />
            <mxPoint x="260" y="1070" as="targetPoint" />
            <Array as="points">
              <mxPoint x="202" y="1090" />
              <mxPoint x="20" y="1090" />
              <mxPoint x="20" y="365" />
              <mxPoint x="142" y="364" />
            </Array>
          </mxGeometry>
        </mxCell>
        <mxCell id="CFxeT3Bh_3nWk0Ns5FCH-46" value="" style="endArrow=classic;html=1;rounded=0;exitX=0.547;exitY=1.018;exitDx=0;exitDy=0;exitPerimeter=0;entryX=0;entryY=0.5;entryDx=0;entryDy=0;" edge="1" parent="1" source="f8DO7Mmtz-OQgVnMJp8k-108" target="f8DO7Mmtz-OQgVnMJp8k-63">
          <mxGeometry width="50" height="50" relative="1" as="geometry">
            <mxPoint x="160" y="920" as="sourcePoint" />
            <mxPoint x="210" y="870" as="targetPoint" />
            <Array as="points">
              <mxPoint x="212" y="920" />
              <mxPoint x="55" y="920" />
              <mxPoint x="55" y="510" />
            </Array>
          </mxGeometry>
        </mxCell>
        <mxCell id="f8DO7Mmtz-OQgVnMJp8k-141" value="" style="endArrow=classic;html=1;rounded=0;exitX=0;exitY=0.5;exitDx=0;exitDy=0;entryX=0;entryY=0;entryDx=0;entryDy=0;" edge="1" parent="1" source="f8DO7Mmtz-OQgVnMJp8k-136" target="f8DO7Mmtz-OQgVnMJp8k-92">
          <mxGeometry width="50" height="50" relative="1" as="geometry">
            <mxPoint x="225" y="999" as="sourcePoint" />
            <mxPoint x="50" y="730" as="targetPoint" />
            <Array as="points">
              <mxPoint x="250" y="1019" />
              <mxPoint x="250" y="930" />
              <mxPoint x="320" y="930" />
              <mxPoint x="320" y="840" />
              <mxPoint x="50" y="840" />
              <mxPoint x="50" y="750" />
            </Array>
          </mxGeometry>
        </mxCell>
        <mxCell id="ljVb3_Cuu5B8RGBBvRsg-162" value="" style="endArrow=classic;html=1;rounded=0;exitX=0.706;exitY=1.007;exitDx=0;exitDy=0;entryX=0.236;entryY=-0.042;entryDx=0;entryDy=0;entryPerimeter=0;exitPerimeter=0;" edge="1" parent="1" source="f8DO7Mmtz-OQgVnMJp8k-26" target="f8DO7Mmtz-OQgVnMJp8k-73">
          <mxGeometry width="50" height="50" relative="1" as="geometry">
            <mxPoint x="420" y="400" as="sourcePoint" />
            <mxPoint x="610" y="400" as="targetPoint" />
            <Array as="points">
              <mxPoint x="531" y="430" />
              <mxPoint x="730" y="430" />
              <mxPoint x="730" y="570" />
              <mxPoint x="160" y="570" />
            </Array>
          </mxGeometry>
        </mxCell>
        <mxCell id="ljVb3_Cuu5B8RGBBvRsg-163" value="" style="endArrow=classic;html=1;rounded=0;exitX=0.7;exitY=1.036;exitDx=0;exitDy=0;entryX=0.158;entryY=-0.024;entryDx=0;entryDy=0;entryPerimeter=0;exitPerimeter=0;" edge="1" parent="1" source="f8DO7Mmtz-OQgVnMJp8k-36" target="f8DO7Mmtz-OQgVnMJp8k-93">
          <mxGeometry width="50" height="50" relative="1" as="geometry">
            <mxPoint x="420" y="400" as="sourcePoint" />
            <mxPoint x="160" y="760" as="targetPoint" />
            <Array as="points">
              <mxPoint x="525" y="490" />
              <mxPoint x="680" y="490" />
              <mxPoint x="680" y="730" />
              <mxPoint x="140" y="730" />
            </Array>
          </mxGeometry>
        </mxCell>
        <mxCell id="f8DO7Mmtz-OQgVnMJp8k-143" value="" style="endArrow=classic;html=1;rounded=0;exitX=0.728;exitY=1.047;exitDx=0;exitDy=0;exitPerimeter=0;entryX=0;entryY=0.5;entryDx=0;entryDy=0;" edge="1" parent="1" source="f8DO7Mmtz-OQgVnMJp8k-136" target="f8DO7Mmtz-OQgVnMJp8k-3">
          <mxGeometry width="50" height="50" relative="1" as="geometry">
            <mxPoint x="345" y="1088" as="sourcePoint" />
            <mxPoint x="30" y="670" as="targetPoint" />
            <Array as="points">
              <mxPoint x="466" y="1040" />
              <mxPoint x="200" y="1040" />
              <mxPoint x="30" y="1040" />
              <mxPoint x="30" y="870" />
              <mxPoint x="30" y="682" />
            </Array>
          </mxGeometry>
        </mxCell>
        <mxCell id="CFxeT3Bh_3nWk0Ns5FCH-48" value="" style="endArrow=classic;html=1;rounded=0;exitX=0.818;exitY=0.036;exitDx=0;exitDy=0;entryX=0.035;entryY=1.032;entryDx=0;entryDy=0;entryPerimeter=0;exitPerimeter=0;" edge="1" parent="1" source="f8DO7Mmtz-OQgVnMJp8k-26" target="CFxeT3Bh_3nWk0Ns5FCH-2">
          <mxGeometry width="50" height="50" relative="1" as="geometry">
            <mxPoint x="340" y="440" as="sourcePoint" />
            <mxPoint x="390" y="390" as="targetPoint" />
            <Array as="points">
              <mxPoint x="600" y="370" />
              <mxPoint x="600" y="280" />
              <mxPoint x="120" y="280" />
            </Array>
          </mxGeometry>
        </mxCell>
        <mxCell id="CFxeT3Bh_3nWk0Ns5FCH-50" value="" style="endArrow=classic;html=1;rounded=0;exitX=0.822;exitY=0.051;exitDx=0;exitDy=0;entryX=0;entryY=0.5;entryDx=0;entryDy=0;exitPerimeter=0;" edge="1" parent="1" source="f8DO7Mmtz-OQgVnMJp8k-36" target="f8DO7Mmtz-OQgVnMJp8k-52">
          <mxGeometry width="50" height="50" relative="1" as="geometry">
            <mxPoint x="460" y="470" as="sourcePoint" />
            <mxPoint x="510" y="420" as="targetPoint" />
            <Array as="points">
              <mxPoint x="600" y="420" />
              <mxPoint x="730" y="420" />
              <mxPoint x="730" y="320" />
              <mxPoint x="50" y="320" />
              <mxPoint x="50" y="200" />
            </Array>
          </mxGeometry>
        </mxCell>
      </root>
    </mxGraphModel>
  </diagram>
</mxfile>
